<svg width="14" height="14" viewBox="0 0 14 14" fill="none" xmlns="http://www.w3.org/2000/svg">
<g clip-path="url(#clip0_26321_5864)">
<path fill-rule="evenodd" clip-rule="evenodd" d="M13.8536 6.64646C14.0488 6.84172 14.0488 7.1583 13.8536 7.35356L10.3535 10.8536C10.2105 10.9966 9.9955 11.0393 9.80866 10.9619C9.62182 10.8845 9.5 10.7022 9.5 10.5L9.5 8.00001L1 8.00001C0.4477 8.00001 -1.98987e-07 7.55229 -1.74846e-07 7.00001C-1.50705e-07 6.44772 0.4477 6.00001 1 6.00001L9.5 6.00001L9.5 3.50001C9.5 3.29778 9.62182 3.11546 9.80866 3.03807C9.9955 2.96068 10.2106 3.00346 10.3536 3.14646L13.8536 6.64646Z" fill="white"/>
</g>
<defs>
<clipPath id="clip0_26321_5864">
<rect width="14" height="14" fill="white" transform="translate(14) rotate(90)"/>
</clipPath>
</defs>
</svg>
