<svg width="32" height="32" viewBox="0 0 32 32" fill="none" xmlns="http://www.w3.org/2000/svg">
<rect width="32" height="32" rx="16" fill="#C99B36"/>
<path d="M15.4766 17.7348L13.87 16.1285L13.87 16.1285L13.8696 16.1281C13.7706 16.0341 13.6388 15.9824 13.5024 15.9842C13.3659 15.9859 13.2354 16.0409 13.1389 16.1375C13.0424 16.234 12.9874 16.3644 12.9857 16.5009C12.9839 16.6374 13.0356 16.7692 13.1296 16.8681L13.13 16.8685L15.63 19.3685L15.63 19.3686C15.7281 19.4666 15.8612 19.5217 16 19.5217C16.1388 19.5217 16.2719 19.4666 16.37 19.3686L16.37 19.3685L18.87 16.8685L18.87 16.8685L18.8704 16.8681C18.9644 16.7692 19.0161 16.6374 19.0143 16.5009C19.0126 16.3644 18.9576 16.234 18.8611 16.1375C18.7646 16.0409 18.6341 15.9859 18.4976 15.9842C18.3612 15.9824 18.2294 16.0341 18.1304 16.1281L18.13 16.1285L16.5234 17.7348V13.022H19.75C20.2077 13.0225 20.6466 13.2045 20.9703 13.5282C21.294 13.8519 21.4761 14.2908 21.4766 14.7486V21.2485C21.4761 21.7063 21.294 22.1452 20.9703 22.4688C20.6466 22.7925 20.2077 22.9746 19.75 22.9751H12.25C11.7923 22.9746 11.3534 22.7925 11.0297 22.4688C10.706 22.1452 10.5239 21.7063 10.5234 21.2485L10.5234 14.7485C10.5239 14.2908 10.706 13.8519 11.0297 13.5282C11.3534 13.2045 11.7923 13.0225 12.25 13.022H15.4766V17.7348ZM16.337 9.16155C16.4264 9.25093 16.4766 9.37214 16.4766 9.49854V12.9751H15.5234V9.49854C15.5234 9.37214 15.5736 9.25093 15.663 9.16155C15.7524 9.07218 15.8736 9.02197 16 9.02197C16.1264 9.02197 16.2476 9.07218 16.337 9.16155Z" fill="white" stroke="white" stroke-width="0.046875"/>
</svg>
