<svg width="26" height="24" viewBox="0 0 26 24" fill="none" xmlns="http://www.w3.org/2000/svg">
<path fill-rule="evenodd" clip-rule="evenodd" d="M8.50965 5.99218C8.5384 5.63748 8.6308 5.30048 8.7756 4.99219H5V6.23298L7 7.74833V21.0076H21V7.76593L23.25 6.25058V4.99219H14.2244C14.3692 5.30048 14.4616 5.63748 14.4903 5.99218H21.8435L20 7.23378V20.0076H8V7.25143L6.33808 5.99218H8.50965Z" fill="#971C4E"/>
<path fill-rule="evenodd" clip-rule="evenodd" d="M7 6.875L5.75 5.25H8.625L10.25 8.5H12.5L14.25 5.25H22.5L21 7.25V20.5H19V12H15V20.5H7V6.875ZM9 12H12.5V15.5H9V12Z" fill="#971C4E"/>
<path d="M5 20.5C5 20.7761 5.22386 21 5.5 21H22.5C22.7761 21 23 20.7761 23 20.5C23 20.2239 22.7761 20 22.5 20H5.5C5.22386 20 5 20.2239 5 20.5Z" fill="#971C4E"/>
<path fill-rule="evenodd" clip-rule="evenodd" d="M14.5 6C14.5 7.65685 13.1568 9 11.5 9C9.84315 9 8.5 7.65685 8.5 6C8.5 4.34315 9.84315 3 11.5 3C13.1568 3 14.5 4.34315 14.5 6ZM12 4.5V5.5H13V6.5H12V7.5H11V6.5H10V5.5H11V4.5H12Z" fill="#971C4E"/>
<circle cx="8" cy="8" r="8" fill="#971C4E" fill-opacity="0.15"/>
</svg>
