<svg width="43" height="43" viewBox="0 0 43 43" fill="none" xmlns="http://www.w3.org/2000/svg">
<rect x="0.43" y="0.43" width="42.14" height="42.14" rx="21.07" fill="#198A5D"/>
<rect x="0.43" y="0.43" width="42.14" height="42.14" rx="21.07" stroke="#126343" stroke-width="0.86"/>
<path fill-rule="evenodd" clip-rule="evenodd" d="M11.6489 15.4022C11.3898 15.6613 11.3898 16.0813 11.6489 16.3404C11.908 16.5995 12.328 16.5995 12.5871 16.3404L13.0565 15.871L15.4016 18.2162L13.5253 20.0926C13.2662 20.3517 13.2662 20.7717 13.5253 21.0308C13.7843 21.2899 14.2043 21.2899 14.4634 21.0308L15.4014 20.0928L23.3762 28.0677C24.3379 29.0295 25.7433 29.2772 26.9336 28.8108L27.5979 29.4751C27.9452 29.8224 28.4373 29.9369 28.88 29.8186L30.4126 31.3512C30.6716 31.6103 31.0916 31.6103 31.3507 31.3512C31.6098 31.0921 31.6098 30.6721 31.3507 30.413L29.8179 28.8801C29.936 28.4376 29.8214 27.9459 29.4743 27.5987L28.8101 26.9345C29.2765 25.7441 29.0288 24.3385 28.0671 23.3767L20.0923 15.4017L21.0307 14.4634C21.2898 14.2043 21.2898 13.7843 21.0307 13.5252C20.7716 13.2661 20.3516 13.2661 20.0925 13.5252L18.2161 15.4016L15.871 13.0564L16.3398 12.5876C16.5989 12.3285 16.5989 11.9085 16.3398 11.6494C16.0807 11.3903 15.6607 11.3903 15.4016 11.6494L11.6489 15.4022ZM17.4053 16.2124L15.0602 13.8672L13.8673 15.0601L16.2124 17.4054L17.4053 16.2124ZM19.2815 16.2126L16.2122 19.2819L18.7383 21.8081L21.8076 18.7387L19.2815 16.2126ZM19.6764 22.7463L21.0838 24.1536C21.8942 24.964 21.297 24.3669 22.022 25.0918L22.9599 26.0298C23.5904 26.6602 23.4465 26.5164 23.8981 26.968L24.187 27.2569C24.8166 27.8865 25.7367 28.0484 26.5157 27.7426L27.742 26.5164C28.0477 25.7373 27.8858 24.8171 27.2563 24.1876L22.7457 19.6769L19.6764 22.7463ZM28.6793 28.4277C28.6745 28.4213 28.6692 28.4153 28.6635 28.4095L28.191 27.937C28.1511 27.9814 28.1098 28.025 28.0671 28.0677C28.0243 28.1105 27.9807 28.1518 27.9362 28.1918L28.4087 28.6643C28.4145 28.67 28.4206 28.6754 28.427 28.6803C28.456 28.6288 28.4924 28.5804 28.5362 28.5366C28.5799 28.4929 28.6281 28.4566 28.6793 28.4277Z" fill="white"/>
<path d="M13.0564 15.0602L12.651 15.4656L12.1816 15.935C12.1464 15.9702 12.0894 15.9702 12.0542 15.935C12.019 15.8998 12.019 15.8428 12.0542 15.8076L15.8069 12.0548L15.4015 11.6494L15.8069 12.0548C15.8421 12.0196 15.8991 12.0196 15.9343 12.0548C15.9695 12.09 15.9695 12.147 15.9343 12.1822L15.4655 12.651L15.0601 13.0564L14.6547 13.4618L13.4618 14.6548L13.0564 15.0602ZM15.8069 18.6216L16.2123 18.2162L16.6177 17.8108L17.8107 16.6178L18.216 16.2124L18.6214 15.807L20.4978 13.9306C20.533 13.8954 20.59 13.8954 20.6252 13.9306C20.6604 13.9658 20.6604 14.0228 20.6252 14.058L19.6868 14.9964L19.2814 15.4018L18.876 15.8072L15.8067 18.8766L15.4013 19.282L14.9959 19.6874L14.0579 20.6254C14.0228 20.6606 13.9657 20.6606 13.9306 20.6254C13.8954 20.5902 13.8954 20.5332 13.9306 20.498L15.8069 18.6216ZM20.2729 24.1538L18.7736 22.6545L18.852 22.5763L18.3319 22.1784C18.2543 22.119 18.1789 22.0548 18.1063 21.9858C18.2269 22.1003 18.3556 22.2021 18.4908 22.2909L18.8809 22.5473L19.211 22.2172L22.2165 19.2115L22.5466 18.8815L22.2903 18.4913C22.2023 18.3575 22.1017 18.2299 21.9885 18.1104C22.0563 18.1819 22.1193 18.2561 22.1778 18.3324L22.5756 18.8525L22.6537 18.7744L27.6615 23.7822C28.4564 24.5771 28.6624 25.7395 28.2761 26.7253L28.1392 27.0746L28.4045 27.3398L29.0687 28.0041C29.2654 28.2008 29.3313 28.4794 29.2639 28.7324L29.1787 29.0518L29.4124 29.2856L30.9452 30.8184C30.9804 30.8536 30.9804 30.9106 30.9452 30.9458C30.9101 30.981 30.853 30.981 30.8179 30.9458L29.2853 29.4132L29.0514 29.1793L28.7318 29.2647C28.4787 29.3324 28.1999 29.2665 28.0032 29.0697L27.339 28.4054L27.0737 28.1402L26.7243 28.2771C25.7872 28.6443 24.6904 28.4762 23.9015 27.7756L25.3692 26.308C25.8521 25.825 25.8521 25.042 25.3692 24.559L24.9638 24.9644L25.3692 24.559C24.8862 24.076 24.1031 24.076 23.6201 24.559L22.1491 26.0301L22.0219 25.9028L23.4929 24.4317C23.9759 23.9487 23.9759 23.1656 23.4929 22.6827C23.0099 22.1997 22.2269 22.1997 21.7439 22.6827L20.2729 24.1538Z" fill="white" stroke="white" stroke-width="0.43"/>
</svg>
