<svg width="16" height="17" viewBox="0 0 16 17" fill="none" xmlns="http://www.w3.org/2000/svg">
<path d="M14.1365 15.6972C14.4294 15.9901 14.9043 15.9901 15.1972 15.6972C15.4901 15.4043 15.4901 14.9294 15.1972 14.6365L14.1365 15.6972ZM11.5639 7.32369C11.5639 9.94163 9.44163 12.0639 6.82369 12.0639V13.5639C10.2701 13.5639 13.0639 10.7701 13.0639 7.32369H11.5639ZM6.82369 12.0639C4.20575 12.0639 2.0835 9.94163 2.0835 7.32369H0.583496C0.583496 10.7701 3.37733 13.5639 6.82369 13.5639V12.0639ZM2.0835 7.32369C2.0835 4.70575 4.20575 2.5835 6.82369 2.5835V1.0835C3.37733 1.0835 0.583496 3.87733 0.583496 7.32369H2.0835ZM6.82369 2.5835C9.44163 2.5835 11.5639 4.70575 11.5639 7.32369H13.0639C13.0639 3.87733 10.2701 1.0835 6.82369 1.0835V2.5835ZM10.2149 11.7756L14.1365 15.6972L15.1972 14.6365L11.2756 10.7149L10.2149 11.7756Z" fill="#9DA0A4"/>
</svg>
