<svg width="40" height="40" viewBox="0 0 40 40" fill="none" xmlns="http://www.w3.org/2000/svg">
<circle cx="20" cy="20" r="20" fill="url(#paint0_linear_26321_4980)"/>
<path fill-rule="evenodd" clip-rule="evenodd" d="M24 22C24 21.1715 24.6715 20.5 25.5 20.5C26.3284 20.5 27 21.1715 27 22V29.5C27 29.7761 26.7761 30 26.5 30C26.2239 30 26 29.7761 26 29.5V22C26 21.7239 25.7761 21.5 25.5 21.5C25.2239 21.5 25 21.7239 25 22V22.1715C25 22.4477 24.7761 22.6715 24.5 22.6715C24.2239 22.6715 24 22.4477 24 22.1715V22Z" fill="white"/>
<path fill-rule="evenodd" clip-rule="evenodd" d="M19 14.5C20.2426 14.5 21.25 13.4927 21.25 12.25C21.25 11.0074 20.2426 10 19 10C17.7573 10 16.75 11.0074 16.75 12.25C16.75 13.4927 17.7573 14.5 19 14.5ZM13.9594 16.5007C14.6055 15.8708 15.5248 15.5 16.6274 15.5H20.2879C22.7737 15.5 24.2594 16.361 25.0972 17.3793C25.4992 17.868 25.7218 18.3569 25.8447 18.7269C25.9176 18.9466 25.9747 19.1737 25.9987 19.4037L25.9994 19.4109L25.9997 19.4141L25.9999 19.4156C26.001 19.4828 26.0008 19.4811 26.0004 19.4636C25.9999 19.4454 25.9993 19.4102 26 19.417C26.0476 19.9674 25.6226 20.4507 25.0507 20.4965C24.4834 20.542 23.9846 20.1401 23.93 19.5965L23.9299 19.5957C23.9291 19.5901 23.927 19.5753 23.9226 19.5526C23.9138 19.5069 23.8966 19.4312 23.8648 19.3356C23.8009 19.1431 23.6825 18.882 23.4676 18.6207C23.1604 18.2473 22.5792 17.7795 21.4342 17.5879C21.4388 17.6186 21.4412 17.6498 21.4412 17.6815C21.4412 18.8963 22.8822 24.251 23.3531 25.9681C23.4315 26.2541 23.2448 26.5439 22.952 26.5909C19.95 27.0723 18.0515 27.0885 15.0491 26.5939C14.7559 26.5456 14.5707 26.2542 14.6514 25.9683C14.8801 25.1582 15.3299 23.5375 15.7354 21.916C15.0118 21.7738 14.3991 21.4557 13.9317 20.9971C13.2931 20.3703 12.9921 19.5456 13.0001 18.7404C13.0082 17.936 13.3245 17.1195 13.9594 16.5007ZM15.4386 17.9056C15.652 17.6975 16.007 17.5106 16.5786 17.5005C16.5656 17.5582 16.5588 17.6185 16.5588 17.6815C16.5588 18.1345 16.4116 18.9757 16.1959 19.9651C15.8191 19.8996 15.5729 19.751 15.4157 19.5967C15.1944 19.3797 15.0753 19.0794 15.0785 18.7596C15.0817 18.439 15.2079 18.1305 15.4386 17.9056Z" fill="white"/>
<path fill-rule="evenodd" clip-rule="evenodd" d="M16.25 27.5076V29.2488C16.25 29.6257 16.5297 29.944 16.9034 29.9925C17.2772 30.0411 17.6288 29.8048 17.7251 29.4404L18.1823 27.7103C17.5648 27.6794 16.9321 27.6122 16.25 27.5076ZM19.8168 27.7068L20.2749 29.4404C20.3712 29.8048 20.7228 30.0411 21.0966 29.9925C21.4703 29.944 21.75 29.6257 21.75 29.2488V27.5005C21.0676 27.6044 20.4346 27.6735 19.8168 27.7068Z" fill="white"/>
<defs>
<linearGradient id="paint0_linear_26321_4980" x1="-19.8694" y1="19.8694" x2="19.8694" y2="59.6083" gradientUnits="userSpaceOnUse">
<stop stop-color="#198A5D"/>
<stop offset="1" stop-color="#198A5D" stop-opacity="0.6"/>
</linearGradient>
</defs>
</svg>
