<svg width="61" height="60" viewBox="0 0 61 60" fill="none" xmlns="http://www.w3.org/2000/svg">
<rect x="1" y="0.5" width="59" height="59" rx="29.5" fill="white"/>
<rect x="1" y="0.5" width="59" height="59" rx="29.5" stroke="#DDDDDD"/>
<path d="M30.5 18C23.876 18 18.5 23.376 18.5 30C18.5 36.624 23.876 42 30.5 42C37.124 42 42.5 36.624 42.5 30C42.5 23.376 37.124 18 30.5 18ZM35.318 31.164H31.664V34.818C31.664 35.463 31.145 35.982 30.5 35.982C29.855 35.982 29.336 35.463 29.336 34.818V31.164H25.682C25.037 31.164 24.518 30.645 24.518 30C24.518 29.355 25.037 28.836 25.682 28.836H29.336V25.182C29.336 24.537 29.855 24.018 30.5 24.018C31.145 24.018 31.664 24.537 31.664 25.182V28.836H35.318C35.963 28.836 36.482 29.355 36.482 30C36.482 30.645 35.96 31.164 35.318 31.164Z" fill="#611232"/>
</svg>
