<svg width="40" height="40" viewBox="0 0 40 40" fill="none" xmlns="http://www.w3.org/2000/svg">
<circle cx="20" cy="20" r="20" fill="url(#paint0_linear_26406_16693)"/>
<path fill-rule="evenodd" clip-rule="evenodd" d="M18.8355 11.4005C19.7091 10.8665 20.8302 10.8665 21.7038 11.4005L22.7227 12.0232C24.1512 12.8963 25.7791 13.0912 27.4139 13.287C27.9424 13.3503 28.4716 13.4136 28.9951 13.5C28.9951 13.5 29.0066 14.4168 28.9944 14.833L28.89 18.4085C28.8004 21.4749 27.4367 24.3827 25.0975 26.4955C23.994 27.4922 22.8527 28.3925 21.5413 29.1406C20.7637 29.5842 19.8017 29.6194 18.9907 29.2338C17.4765 28.514 16.1355 27.6012 14.9113 26.4955C12.5721 24.3827 11.2085 21.4749 11.1189 18.4085L11.0148 14.8444C11.0024 14.4223 11.0148 13.5 11.0148 13.5C11.4397 13.4498 11.8729 13.4087 12.3094 13.3672C14.2361 13.1841 16.2267 12.9949 17.8597 11.9968L18.8355 11.4005ZM18.9999 19V15.5H20.9999V19H24.4999V21H20.9999V24.5H18.9999V21H15.4999V19H18.9999Z" fill="white"/>
<defs>
<linearGradient id="paint0_linear_26406_16693" x1="-19.8694" y1="19.8694" x2="19.8694" y2="59.6083" gradientUnits="userSpaceOnUse">
<stop stop-color="#198A5D"/>
<stop offset="1" stop-color="#198A5D" stop-opacity="0.6"/>
</linearGradient>
</defs>
</svg>
