<svg width="16" height="16" viewBox="0 0 16 16" fill="none" xmlns="http://www.w3.org/2000/svg">
<path d="M1.49994 8.00146C1.49994 11.5912 4.41025 14.5015 7.99994 14.5015C11.5896 14.5015 14.4999 11.5912 14.4999 8.00147C14.4999 4.41178 11.5896 1.50147 7.99994 1.50147C4.41025 1.50147 1.49994 4.41178 1.49994 8.00146ZM4.6465 8.89803L7.6465 5.89803C7.74026 5.80433 7.86739 5.7517 7.99994 5.7517C8.13249 5.7517 8.25962 5.80433 8.35338 5.89803L11.3534 8.89803C11.4432 8.99256 11.4925 9.11843 11.4908 9.24881C11.4892 9.3792 11.4366 9.50377 11.3444 9.59597C11.2522 9.68817 11.1277 9.7407 10.9973 9.74237C10.8669 9.74404 10.741 9.69471 10.6465 9.6049L7.99994 6.95865L5.35338 9.6049C5.25885 9.69471 5.13297 9.74404 5.00259 9.74237C4.87221 9.7407 4.74764 9.68817 4.65544 9.59597C4.56324 9.50377 4.5107 9.37919 4.50903 9.24881C4.50736 9.11843 4.55669 8.99256 4.6465 8.89803Z" fill="#971C4E"/>
</svg>
