<svg width="16" height="16" viewBox="0 0 16 16" fill="none" xmlns="http://www.w3.org/2000/svg">
<path d="M14.5001 7.99853C14.5001 4.40885 11.5897 1.49854 8.00006 1.49854C4.41037 1.49854 1.50006 4.40885 1.50006 7.99853C1.50006 11.5882 4.41037 14.4985 8.00006 14.4985C11.5897 14.4985 14.5001 11.5882 14.5001 7.99853ZM11.3535 7.10197L8.3535 10.102C8.25974 10.1957 8.13261 10.2483 8.00006 10.2483C7.86751 10.2483 7.74038 10.1957 7.64662 10.102L4.64662 7.10197C4.55681 7.00744 4.50748 6.88157 4.50915 6.75119C4.51082 6.6208 4.56336 6.49623 4.65556 6.40403C4.74776 6.31183 4.87233 6.2593 5.00271 6.25763C5.13309 6.25596 5.25897 6.30529 5.3535 6.3951L8.00006 9.04135L10.6466 6.3951C10.7412 6.30529 10.867 6.25596 10.9974 6.25763C11.1278 6.2593 11.2524 6.31183 11.3446 6.40403C11.4368 6.49623 11.4893 6.6208 11.491 6.75119C11.4926 6.88157 11.4433 7.00744 11.3535 7.10197Z" fill="#971C4E"/>
</svg>
