<svg width="25" height="25" viewBox="0 0 25 25" fill="none" xmlns="http://www.w3.org/2000/svg">
<path d="M15.375 13.875C16.0654 13.875 16.625 12.9795 16.625 11.875C16.625 10.7704 16.0654 9.875 15.375 9.875C14.6847 9.875 14.125 10.7704 14.125 11.875C14.125 12.9795 14.6847 13.875 15.375 13.875Z" fill="#971C4E"/>
<path d="M7.49633 12.0499C7.43683 12.4188 7.68703 12.7725 8.02858 12.9913C8.38548 13.2198 8.89423 13.3448 9.49348 13.2563C10.1164 13.1644 10.5592 12.8187 10.8202 12.4236C11.0724 12.0419 11.1762 11.5772 11.0603 11.2328C11.0331 11.1519 10.9665 11.0904 10.8836 11.0699C10.8008 11.0493 10.7131 11.0724 10.6512 11.1312C9.75328 11.9836 8.73933 12.1929 7.83018 11.8554C7.76003 11.8294 7.68193 11.8361 7.61728 11.8738C7.55263 11.9114 7.50828 11.9761 7.49633 12.0499Z" fill="#971C4E"/>
<path fill-rule="evenodd" clip-rule="evenodd" d="M8.42102 16.5655L8.42192 16.5649L8.43587 16.5566C8.44867 16.549 8.46947 16.5369 8.49757 16.5215C8.55387 16.4907 8.63862 16.4469 8.74617 16.3993C8.96297 16.3032 9.26277 16.1956 9.60197 16.1419C10.2653 16.0368 11.0621 16.134 11.7415 16.9459C12.7041 18.0963 13.8928 18.2403 14.8043 18.0959C15.2525 18.0249 15.6376 17.8852 15.9087 17.7651C16.0452 17.7047 16.1552 17.6481 16.2327 17.6057C16.2715 17.5844 16.3023 17.5666 16.3244 17.5535L16.3375 17.5456L16.3509 17.5375L16.3591 17.5324L16.362 17.5306L16.3631 17.5299L16.3639 17.5294C16.5422 17.4161 16.63 17.203 16.5834 16.997C16.5368 16.791 16.3657 16.6365 16.156 16.611L12.3741 16.1516C11.4369 15.1411 10.3151 15.0165 9.44552 15.1542C8.99732 15.2252 8.61227 15.3649 8.34112 15.485C8.20467 15.5455 8.09467 15.602 8.01717 15.6444C7.97837 15.6657 7.94757 15.6835 7.92547 15.6966C7.92407 15.6974 7.92277 15.6982 7.92142 15.699C7.91222 15.7045 7.90472 15.7091 7.89892 15.7126L7.89072 15.7177L7.88787 15.7195L7.88677 15.7202L7.88592 15.7207C7.65287 15.8689 7.58402 16.1779 7.73212 16.4109C7.87997 16.6435 8.18807 16.7126 8.42102 16.5655ZM16.0957 17.1074L16.3639 17.5294C16.3639 17.5294 16.3639 17.5294 16.0957 17.1074Z" fill="#971C4E"/>
<path fill-rule="evenodd" clip-rule="evenodd" d="M21.125 12.875C21.125 17.8456 17.0956 21.875 12.125 21.875C7.15445 21.875 3.125 17.8456 3.125 12.875C3.125 7.90445 7.15445 3.875 12.125 3.875C17.0956 3.875 21.125 7.90445 21.125 12.875ZM20.125 12.875C20.125 17.2933 16.5433 20.875 12.125 20.875C7.7067 20.875 4.125 17.2933 4.125 12.875C4.125 8.4567 7.7067 4.875 12.125 4.875C16.5433 4.875 20.125 8.4567 20.125 12.875Z" fill="#971C4E"/>
</svg>
