<svg width="25" height="25" viewBox="0 0 25 25" fill="none" xmlns="http://www.w3.org/2000/svg">
<path fill-rule="evenodd" clip-rule="evenodd" d="M12.5571 20.9844C16.9754 20.9844 20.5571 17.4027 20.5571 12.9844C20.5571 8.56607 16.9754 4.98438 12.5571 4.98438C8.13883 4.98438 4.55713 8.56607 4.55713 12.9844C4.55713 17.4027 8.13883 20.9844 12.5571 20.9844ZM12.5571 21.9844C17.5277 21.9844 21.5571 17.9549 21.5571 12.9844C21.5571 8.01382 17.5277 3.98438 12.5571 3.98438C7.58658 3.98438 3.55713 8.01382 3.55713 12.9844C3.55713 17.9549 7.58658 21.9844 12.5571 21.9844Z" fill="#971C4E"/>
<path fill-rule="evenodd" clip-rule="evenodd" d="M7.55713 16.7344C7.55713 15.4917 8.56448 14.4844 9.80713 14.4844H15.3071C16.5498 14.4844 17.5571 15.4917 17.5571 16.7344C17.5571 17.977 16.5498 18.9844 15.3071 18.9844H9.80713C8.56448 18.9844 7.55713 17.977 7.55713 16.7344ZM9.05713 17.4844C9.05713 17.2082 9.28098 16.9844 9.55713 16.9844H15.5571C15.8333 16.9844 16.0571 17.2082 16.0571 17.4844C16.0571 17.7605 15.8333 17.9844 15.5571 17.9844H9.55713C9.28098 17.9844 9.05713 17.7605 9.05713 17.4844ZM9.55713 15.4844C9.28098 15.4844 9.05713 15.7082 9.05713 15.9844C9.05713 16.2605 9.28098 16.4844 9.55713 16.4844H15.5571C15.8333 16.4844 16.0571 16.2605 16.0571 15.9844C16.0571 15.7082 15.8333 15.4844 15.5571 15.4844H9.55713Z" fill="#971C4E"/>
<path fill-rule="evenodd" clip-rule="evenodd" d="M9.30713 13.4844C9.99748 13.4844 10.5571 12.5889 10.5571 11.4844C10.5571 10.3798 9.99748 9.48438 9.30713 9.48438C8.61678 9.48438 8.05713 10.3798 8.05713 11.4844C8.05713 12.5889 8.61678 13.4844 9.30713 13.4844ZM15.8071 13.4844C16.4975 13.4844 17.0571 12.5889 17.0571 11.4844C17.0571 10.3798 16.4975 9.48438 15.8071 9.48438C15.1168 9.48438 14.5571 10.3798 14.5571 11.4844C14.5571 12.5889 15.1168 13.4844 15.8071 13.4844Z" fill="#971C4E"/>
</svg>
