<svg width="12" height="12" viewBox="0 0 12 12" fill="none" xmlns="http://www.w3.org/2000/svg">
<path fill-rule="evenodd" clip-rule="evenodd" d="M2.48379 9.61284C3.23712 10.2932 4.06235 10.855 4.99416 11.2979C5.49327 11.5352 6.08524 11.5136 6.56373 11.2406C7.37078 10.7803 8.07312 10.2262 8.75222 9.61284C10.1917 8.31266 11.0309 6.52324 11.086 4.63623L11.1503 2.43589C11.1578 2.17976 11.1507 1.61561 11.1507 1.61561C10.8286 1.56244 10.5029 1.52346 10.1776 1.4845C9.17161 1.36404 8.16989 1.24412 7.29081 0.706829L6.66376 0.323586C6.12613 -0.00499581 5.43626 -0.00499886 4.89866 0.323586L4.29819 0.690586C3.29324 1.3048 2.06826 1.42121 0.88257 1.53389C0.613989 1.5594 0.347425 1.58472 0.0858932 1.61561C0.0858932 1.61561 0.0783024 2.18315 0.0858932 2.4429L0.149973 4.63623C0.205106 6.52324 1.04426 8.31266 2.48379 9.61284ZM0.69797 2.17004C0.698204 2.26801 0.699084 2.3589 0.701013 2.42493L0.765096 4.61826C0.815179 6.33238 1.57743 7.96496 2.89626 9.15613C3.60752 9.79853 4.38321 10.3261 5.25838 10.7422C5.57638 10.8933 5.95583 10.879 6.25881 10.7061C7.01426 10.2752 7.68016 9.75186 8.33973 9.15613C9.65859 7.96496 10.4208 6.33238 10.4709 4.61823L10.5352 2.41792C10.5372 2.34903 10.5381 2.25235 10.5383 2.14878C10.3943 2.13023 10.248 2.11272 10.0985 2.09481L10.0817 2.09281C9.75087 2.05318 9.40404 2.0114 9.05952 1.95293C8.36906 1.83576 7.64669 1.64555 6.96989 1.23191L6.34284 0.848666C6.00223 0.64049 5.56019 0.64049 5.21958 0.848666L4.61912 1.21567C3.9057 1.6517 3.11761 1.85832 2.35863 1.98047C1.88792 2.05623 1.38093 2.10466 0.905942 2.15007C0.83585 2.15675 0.766453 2.1634 0.69797 2.17004Z" fill="white"/>
</svg>
