<svg width="15" height="15" viewBox="0 0 15 15" fill="none" xmlns="http://www.w3.org/2000/svg">
<path fill-rule="evenodd" clip-rule="evenodd" d="M4.48379 11.6128C5.23712 12.2932 6.06235 12.855 6.99416 13.2979C7.49327 13.5352 8.08524 13.5136 8.56373 13.2406C9.37078 12.7803 10.0731 12.2262 10.7522 11.6128C12.1917 10.3127 13.0309 8.52324 13.086 6.63623L13.1503 4.43589C13.1578 4.17976 13.1507 3.61561 13.1507 3.61561C12.8286 3.56244 12.5029 3.52346 12.1776 3.4845C11.1716 3.36404 10.1699 3.24412 9.29081 2.70683L8.66376 2.32359C8.12613 1.995 7.43626 1.995 6.89866 2.32359L6.29819 2.69059C5.29324 3.3048 4.06826 3.42121 2.88257 3.53389C2.61399 3.5594 2.34743 3.58472 2.08589 3.61561C2.08589 3.61561 2.0783 4.18315 2.08589 4.4429L2.14997 6.63623C2.20511 8.52324 3.04426 10.3127 4.48379 11.6128ZM2.69797 4.17004C2.6982 4.26801 2.69908 4.3589 2.70101 4.42493L2.7651 6.61826C2.81518 8.33238 3.57743 9.96496 4.89626 11.1561C5.60752 11.7985 6.38321 12.3261 7.25838 12.7422C7.57638 12.8933 7.95583 12.879 8.25881 12.7061C9.01426 12.2752 9.68016 11.7519 10.3397 11.1561C11.6586 9.96496 12.4208 8.33238 12.4709 6.61823L12.5352 4.41792C12.5372 4.34903 12.5381 4.25235 12.5383 4.14878C12.3943 4.13023 12.248 4.11272 12.0985 4.09481L12.0817 4.09281C11.7509 4.05318 11.404 4.0114 11.0595 3.95293C10.3691 3.83576 9.64669 3.64555 8.96989 3.23191L8.34284 2.84867C8.00223 2.64049 7.56019 2.64049 7.21958 2.84867L6.61912 3.21567C5.9057 3.6517 5.11761 3.85832 4.35863 3.98047C3.88792 4.05623 3.38093 4.10466 2.90594 4.15007C2.83585 4.15675 2.76645 4.1634 2.69797 4.17004Z" fill="white"/>
<path fill-rule="evenodd" clip-rule="evenodd" d="M6.99963 10.3845L6.99994 4.84619L8.23071 4.84625L8.2304 10.3846L6.99963 10.3845Z" fill="white"/>
<path fill-rule="evenodd" clip-rule="evenodd" d="M10.3845 8.23077H4.84607V7H10.3845V8.23077Z" fill="white"/>
</svg>
