<svg width="15" height="15" viewBox="0 0 15 15" fill="none" xmlns="http://www.w3.org/2000/svg">
<path fill-rule="evenodd" clip-rule="evenodd" d="M4.4839 11.6128C5.23722 12.2932 6.06245 12.855 6.99427 13.2979C7.49338 13.5352 8.08535 13.5136 8.56384 13.2406C9.37089 12.7803 10.0732 12.2262 10.7523 11.6128C12.1918 10.3127 13.031 8.52324 13.0861 6.63623L13.1504 4.43589C13.1579 4.17976 13.1508 3.61561 13.1508 3.61561C12.8287 3.56244 12.503 3.52346 12.1777 3.4845C11.1717 3.36404 10.17 3.24412 9.29092 2.70683L8.66387 2.32359C8.12624 1.995 7.43636 1.995 6.89876 2.32359L6.2983 2.69059C5.29335 3.3048 4.06836 3.42121 2.88268 3.53389C2.6141 3.5594 2.34753 3.58472 2.086 3.61561C2.086 3.61561 2.07841 4.18315 2.086 4.4429L2.15008 6.63623C2.20521 8.52324 3.04437 10.3127 4.4839 11.6128ZM2.69808 4.17004C2.69831 4.26801 2.69919 4.3589 2.70112 4.42493L2.7652 6.61826C2.81529 8.33238 3.57753 9.96496 4.89636 11.1561C5.60762 11.7985 6.38332 12.3261 7.25849 12.7422C7.57649 12.8933 7.95593 12.879 8.25892 12.7061C9.01436 12.2752 9.68027 11.7519 10.3398 11.1561C11.6587 9.96496 12.4209 8.33238 12.471 6.61823L12.5353 4.41792C12.5373 4.34903 12.5382 4.25235 12.5384 4.14878C12.3944 4.13023 12.2481 4.11272 12.0986 4.09481L12.0818 4.09281C11.751 4.05318 11.4041 4.0114 11.0596 3.95293C10.3692 3.83576 9.64679 3.64555 8.96999 3.23191L8.34295 2.84867C8.00233 2.64049 7.5603 2.64049 7.21969 2.84867L6.61922 3.21567C5.90581 3.6517 5.11772 3.85832 4.35873 3.98047C3.88802 4.05623 3.38104 4.10466 2.90605 4.15007C2.83596 4.15675 2.76656 4.1634 2.69808 4.17004Z" fill="#971C4E"/>
<path fill-rule="evenodd" clip-rule="evenodd" d="M6.99963 10.3845L6.99993 4.84619L8.2307 4.84625L8.2304 10.3846L6.99963 10.3845Z" fill="#971C4E"/>
<path fill-rule="evenodd" clip-rule="evenodd" d="M10.3846 8.23077H4.84609V7H10.3846V8.23077Z" fill="#971C4E"/>
</svg>
