<svg width="25" height="25" viewBox="0 0 25 25" fill="none" xmlns="http://www.w3.org/2000/svg">
<path d="M12.4585 3.875C13.814 3.875 15.0995 4.17467 16.2524 4.71137C16.0927 5.00383 15.9484 5.30696 15.8279 5.61705C14.8038 5.14085 13.6622 4.875 12.4585 4.875C8.0402 4.875 4.4585 8.4567 4.4585 12.875C4.4585 17.2933 8.0402 20.875 12.4585 20.875C16.8768 20.875 20.4585 17.2933 20.4585 12.875C20.4585 12.11 20.3511 11.37 20.1506 10.6694C20.4759 10.5531 20.7788 10.3906 21.0511 10.1898C21.3158 11.0379 21.4585 11.9397 21.4585 12.875C21.4585 17.8456 17.429 21.875 12.4585 21.875C7.48795 21.875 3.4585 17.8456 3.4585 12.875C3.4585 7.90445 7.48795 3.875 12.4585 3.875Z" fill="#971C4E"/>
<path d="M20.9585 7.375C20.9585 8.47955 20.063 9.375 18.9585 9.375C17.8539 9.375 16.9585 8.47955 16.9585 7.375C16.9585 5.625 18.9585 3.875 18.9585 3.875C18.9585 3.875 20.9585 5.625 20.9585 7.375Z" fill="#971C4E"/>
<path d="M8.75525 17.375C8.8674 17.0847 8.99845 16.8093 9.14635 16.5517L8.2909 15.8184C8.1869 15.855 8.075 15.875 7.9585 15.875C7.4062 15.875 6.9585 15.4273 6.9585 14.875C6.9585 14.3227 7.4062 13.875 7.9585 13.875C8.5108 13.875 8.9585 14.3227 8.9585 14.875C8.9585 14.9379 8.9527 14.9995 8.9416 15.0591L9.7255 15.731C10.4561 14.8866 11.4121 14.375 12.4585 14.375C14.0737 14.375 15.4737 15.5941 16.1617 17.375C16.3554 17.8764 15.9518 18.375 15.4143 18.375H12.675L10.0733 16.122L9.41875 16.878L11.1474 18.375H9.50265C8.96515 18.375 8.56155 17.8764 8.75525 17.375Z" fill="#971C4E"/>
<path d="M7.80618 11.754C7.46463 11.5352 7.21438 11.1815 7.27393 10.8126C7.28583 10.7388 7.33023 10.6741 7.39488 10.6365C7.45948 10.5988 7.53763 10.5921 7.60773 10.6181C8.51688 10.9556 9.53088 10.7463 10.4288 9.89389C10.4907 9.83509 10.5783 9.81199 10.6612 9.83259C10.744 9.85314 10.8107 9.91459 10.8379 9.99549C10.9537 10.3399 10.8499 10.8046 10.5978 11.1863C10.3368 11.5814 9.89398 11.9271 9.27103 12.019C8.67183 12.1075 8.16303 11.9825 7.80618 11.754Z" fill="#971C4E"/>
<path d="M16.7797 11.754C17.1212 11.5352 17.3714 11.1815 17.3119 10.8126C17.3 10.7388 17.2556 10.6741 17.191 10.6365C17.1263 10.5988 17.0482 10.5921 16.9781 10.6181C16.0689 10.9556 15.055 10.7463 14.157 9.89389C14.0951 9.83509 14.0075 9.81199 13.9246 9.83259C13.8418 9.85314 13.7752 9.91459 13.7479 9.99549C13.6321 10.3399 13.7359 10.8046 13.9881 11.1863C14.2491 11.5814 14.6918 11.9271 15.3148 12.019C15.914 12.1075 16.4228 11.9825 16.7797 11.754Z" fill="#971C4E"/>
</svg>
