<svg width="25" height="25" viewBox="0 0 25 25" fill="none" xmlns="http://www.w3.org/2000/svg">
<path d="M9.71704 16.9884C9.71704 16.9884 9.71759 16.9871 9.71969 16.9844C9.71824 16.9871 9.71704 16.9884 9.71704 16.9884Z" fill="#971C4E"/>
<path d="M14.7409 16.9884C14.7409 16.9884 14.7397 16.9871 14.7383 16.9844C14.7404 16.987 14.7409 16.9884 14.7409 16.9884Z" fill="#971C4E"/>
<path fill-rule="evenodd" clip-rule="evenodd" d="M18.2754 19.604C20.0897 17.9575 21.229 15.5806 21.229 12.9375C21.229 7.96695 17.1996 3.9375 12.229 3.9375C7.25845 3.9375 3.229 7.96695 3.229 12.9375C3.229 15.5806 4.36833 17.9575 6.18265 19.604C6.1577 19.6242 6.13355 19.6447 6.11025 19.6658C5.91235 19.8447 5.729 20.1034 5.729 20.4375C5.729 20.9305 6.1166 21.257 6.4461 21.4518C6.80905 21.6663 7.301 21.8422 7.8651 21.9832C9.00095 22.2672 10.5436 22.4375 12.229 22.4375C13.9144 22.4375 15.4571 22.2672 16.5929 21.9832C17.157 21.8422 17.649 21.6663 18.0119 21.4518C18.3414 21.257 18.729 20.9305 18.729 20.4375C18.729 20.1034 18.5457 19.8447 18.3477 19.6658C18.3245 19.6447 18.3003 19.6242 18.2754 19.604ZM20.229 12.9375C20.229 15.4218 19.0967 17.6416 17.32 19.1089C16.8752 18.9497 16.3344 18.8162 15.729 18.7113V18.5199C16.0476 18.1251 16.229 17.6709 16.229 17.1875C16.229 15.6687 14.4382 14.4375 12.229 14.4375C10.0199 14.4375 8.229 15.6687 8.229 17.1875C8.229 17.6709 8.4104 18.1251 8.729 18.5199V18.7113C8.1236 18.8162 7.58285 18.9497 7.13805 19.1089C5.36135 17.6416 4.229 15.4218 4.229 12.9375C4.229 8.5192 7.8107 4.9375 12.229 4.9375C16.6473 4.9375 20.229 8.5192 20.229 12.9375ZM12.2333 16.5H12.2248C12.0576 16.5 11.8917 16.5042 11.729 16.5122V19.4375C11.729 19.7136 11.5052 19.9375 11.229 19.9375C10.9529 19.9375 10.729 19.7136 10.729 19.4375V16.6203C10.5749 16.6479 10.431 16.6799 10.3003 16.7162C10.0449 16.7871 9.87375 16.8654 9.77745 16.9342C9.7532 16.9515 9.73805 16.9648 9.729 16.9739V19.5711L9.30055 19.633C8.4247 19.7597 7.7219 19.9378 7.2517 20.1372C7.01475 20.2377 6.8642 20.3323 6.78085 20.4076C6.7681 20.4191 6.75805 20.4291 6.75015 20.4376C6.7784 20.4688 6.83695 20.5212 6.9549 20.591C7.1992 20.7353 7.5859 20.8827 8.10765 21.0131C9.14335 21.272 10.6007 21.4375 12.229 21.4375C13.8573 21.4375 15.3147 21.272 16.3504 21.0131C16.8721 20.8827 17.2588 20.7353 17.5031 20.591C17.6211 20.5212 17.6796 20.4688 17.7079 20.4376C17.7 20.4291 17.6899 20.4191 17.6772 20.4076C17.5938 20.3323 17.4433 20.2377 17.2063 20.1372C16.7361 19.9378 16.0333 19.7597 15.1575 19.633L14.729 19.5711V16.9739C14.72 16.9648 14.7048 16.9515 14.6806 16.9342C14.5843 16.8654 14.4132 16.7871 14.1577 16.7162C14.027 16.6799 13.8831 16.6479 13.729 16.6203V19.4375C13.729 19.7136 13.5052 19.9375 13.229 19.9375C12.9529 19.9375 12.729 19.7136 12.729 19.4375V16.5122C12.5664 16.5042 12.4004 16.5 12.2333 16.5ZM9.717 16.9882C9.717 16.9882 9.71755 16.9868 9.71965 16.9841C9.7182 16.9868 9.717 16.9882 9.717 16.9882ZM14.741 16.9882C14.741 16.9882 14.7398 16.9868 14.7384 16.9841C14.7405 16.9868 14.741 16.9882 14.741 16.9882Z" fill="#971C4E"/>
<path d="M7.84955 11.1119C8.01415 10.9201 8.29606 10.8813 8.50636 11.0215L10.0064 12.0215C10.1455 12.1142 10.229 12.2703 10.229 12.4375C10.229 12.6047 10.1455 12.7608 10.0064 12.8536L8.50636 13.8536C8.29301 13.9958 8.0067 13.9536 7.84345 13.7559C7.6802 13.5582 7.69295 13.269 7.873 13.0864C8.23505 12.7193 8.2855 12.5466 8.28485 12.4564C8.2841 12.3555 8.2205 12.1693 7.85995 11.7749C7.6894 11.5883 7.68495 11.3038 7.84955 11.1119Z" fill="#971C4E"/>
<path d="M15.9517 11.0215C16.162 10.8813 16.4439 10.9201 16.6085 11.1119C16.7731 11.3038 16.7686 11.5883 16.5981 11.7749C16.2375 12.1693 16.1739 12.3555 16.1732 12.4564C16.1725 12.5466 16.223 12.7193 16.585 13.0864C16.7651 13.269 16.7778 13.5582 16.6146 13.7559C16.4513 13.9536 16.165 13.9958 15.9517 13.8536L14.4517 12.8536C14.3126 12.7608 14.229 12.6047 14.229 12.4375C14.229 12.2703 14.3126 12.1142 14.4517 12.0215L15.9517 11.0215Z" fill="#971C4E"/>
</svg>
