<svg width="25" height="25" viewBox="0 0 25 25" fill="none" xmlns="http://www.w3.org/2000/svg">
<path d="M7.75759 12.5538C7.41604 12.3351 7.16579 11.9813 7.22534 11.6125C7.23729 11.5386 7.28164 11.474 7.34629 11.4363C7.41094 11.3986 7.48904 11.3919 7.55919 11.4179C8.46829 11.7555 9.48229 11.5461 10.3802 10.6937C10.4421 10.6349 10.5298 10.6118 10.6126 10.6324C10.6955 10.653 10.7621 10.7144 10.7893 10.7953C10.9051 11.1397 10.8013 11.6044 10.5492 11.9862C10.2882 12.3813 9.84544 12.7269 9.22244 12.8189C8.62324 12.9073 8.11444 12.7824 7.75759 12.5538Z" fill="#971C4E"/>
<path d="M16.7311 12.5538C17.0726 12.3351 17.3228 11.9813 17.2633 11.6125C17.2514 11.5386 17.207 11.474 17.1424 11.4363C17.0777 11.3986 16.9996 11.3919 16.9295 11.4179C16.0203 11.7555 15.0064 11.5461 14.1084 10.6937C14.0465 10.6349 13.9589 10.6118 13.876 10.6324C13.7932 10.653 13.7266 10.7144 13.6993 10.7953C13.5835 11.1397 13.6873 11.6044 13.9395 11.9862C14.2005 12.3813 14.6432 12.7269 15.2662 12.8189C15.8654 12.9073 16.3742 12.7824 16.7311 12.5538Z" fill="#971C4E"/>
<path d="M8.83652 17.0256C8.88512 16.8478 8.95917 16.6652 9.05197 16.5229C9.68617 15.5499 10.9293 14.9375 12.3002 14.9375C13.6229 14.9375 14.8238 15.5069 15.4769 16.4183C15.4781 16.42 15.4811 16.424 15.4855 16.4298C15.5108 16.4631 15.5816 16.5562 15.6247 16.6313C15.7066 16.7741 15.7664 16.9499 15.803 17.1178C15.8399 17.2871 15.8614 17.4864 15.8408 17.6797C15.8219 17.8575 15.7558 18.1294 15.5208 18.3137C15.2594 18.5187 14.946 18.4998 14.6929 18.4109C13.4958 18.0198 12.9282 17.8514 12.3688 17.8482C11.8112 17.8451 11.2304 18.0066 10.012 18.4119L10.008 18.4132L10.004 18.4145C9.72407 18.5024 9.39322 18.5224 9.11817 18.3209C8.85452 18.1278 8.78412 17.8328 8.76887 17.6324C8.75277 17.4206 8.78757 17.2045 8.83652 17.0256Z" fill="#971C4E"/>
<path fill-rule="evenodd" clip-rule="evenodd" d="M21.354 12.9375C21.354 17.9081 17.3246 21.9375 12.354 21.9375C7.38345 21.9375 3.354 17.9081 3.354 12.9375C3.354 7.96695 7.38345 3.9375 12.354 3.9375C17.3246 3.9375 21.354 7.96695 21.354 12.9375ZM20.354 12.9375C20.354 17.3558 16.7723 20.9375 12.354 20.9375C7.9357 20.9375 4.354 17.3558 4.354 12.9375C4.354 8.5192 7.9357 4.9375 12.354 4.9375C16.7723 4.9375 20.354 8.5192 20.354 12.9375Z" fill="#971C4E"/>
</svg>
