<svg width="25" height="24" viewBox="0 0 25 24" fill="none" xmlns="http://www.w3.org/2000/svg">
<path fill-rule="evenodd" clip-rule="evenodd" d="M12.8062 20C13.02 20 13.2319 19.9916 13.4416 19.9751C13.5242 20.3023 13.6542 20.6351 13.8559 20.9394C13.5116 20.9795 13.1613 21 12.8062 21C7.8356 21 3.80615 16.9706 3.80615 12C3.80615 7.02945 7.8356 3 12.8062 3C17.7767 3 21.8062 7.02945 21.8062 12C21.8062 12.293 21.7922 12.5828 21.7648 12.8686C21.4732 12.6841 21.1395 12.5632 20.7896 12.519C20.8006 12.3474 20.8062 12.1743 20.8062 12C20.8062 7.5817 17.2245 4 12.8062 4C8.38785 4 4.80615 7.5817 4.80615 12C4.80615 16.4183 8.38785 20 12.8062 20Z" fill="#971C4E"/>
<path d="M15.8062 15C15.8062 16.3807 14.6869 17.5 13.3062 17.5C11.9255 17.5 10.8062 16.3807 10.8062 15C10.8062 13.6193 11.9255 12.5 13.3062 12.5C14.6869 12.5 15.8062 13.6193 15.8062 15Z" fill="#971C4E"/>
<path fill-rule="evenodd" clip-rule="evenodd" d="M13.3062 17.5C14.6869 17.5 15.8062 16.3807 15.8062 15C15.8062 13.6193 14.6869 12.5 13.3062 12.5C11.9255 12.5 10.8062 13.6193 10.8062 15C10.8062 16.3807 11.9255 17.5 13.3062 17.5Z" fill="#971C4E"/>
<path d="M20.3596 13.5066C21.0865 13.4365 21.7314 13.9361 21.8002 14.6225C21.869 15.3089 21.3356 15.9222 20.6087 15.9923C19.4572 16.1034 18.1812 14.9717 18.1812 14.9717C18.1812 14.9717 19.2081 13.6177 20.3596 13.5066Z" fill="#971C4E"/>
<path d="M14.714 20.923C15.1392 21.5286 15.9484 21.6821 16.5214 21.2658C17.0944 20.8495 17.2143 20.021 16.7891 19.4153C16.1155 18.4557 14.4043 18.25 14.4043 18.25C14.4043 18.25 14.0404 19.9634 14.714 20.923Z" fill="#971C4E"/>
<path fill-rule="evenodd" clip-rule="evenodd" d="M14.4043 18.25C14.4043 18.25 14.3375 18.5644 14.3141 18.9993C14.3099 19.0779 14.3071 19.1605 14.3063 19.2459C14.3016 19.7905 14.3811 20.4488 14.714 20.923C15.1391 21.5286 15.9483 21.6821 16.5214 21.2658C17.0944 20.8495 17.2142 20.021 16.7891 19.4153C16.4596 18.9459 15.8818 18.6569 15.3775 18.4841C15.2814 18.4512 15.188 18.4225 15.0994 18.3976C14.7027 18.2859 14.4043 18.25 14.4043 18.25Z" fill="#971C4E"/>
<path d="M20.8884 17.2059C21.7644 17.7146 22.0776 18.8105 21.588 19.6537C21.0983 20.4968 19.9913 20.768 19.1153 20.2593C17.7274 19.4533 17.2261 17.1207 17.2261 17.1207C17.2261 17.1207 19.5005 16.4 20.8884 17.2059Z" fill="#971C4E"/>
<path fill-rule="evenodd" clip-rule="evenodd" d="M21.588 19.6537C22.0776 18.8105 21.7644 17.7146 20.8884 17.2059C19.5005 16.4 17.2261 17.1207 17.2261 17.1207C17.2261 17.1207 17.7274 19.4533 19.1153 20.2593C19.9913 20.768 21.0983 20.4968 21.588 19.6537Z" fill="#971C4E"/>
<path fill-rule="evenodd" clip-rule="evenodd" d="M9.4267 9.17444C9.5913 8.98259 9.8732 8.94379 10.0835 9.08399L11.5835 10.084C11.7226 10.1767 11.8062 10.3328 11.8062 10.5C11.8062 10.6672 11.7226 10.8233 11.5835 10.9161L10.0835 11.9161C9.87015 12.0583 9.58385 12.0161 9.4206 11.8184C9.25735 11.6207 9.2701 11.3315 9.45015 11.1489C9.8122 10.7818 9.86265 10.6091 9.862 10.5189C9.86125 10.418 9.79765 10.2318 9.4371 9.83739C9.26655 9.65079 9.2621 9.36629 9.4267 9.17444Z" fill="#971C4E"/>
<path fill-rule="evenodd" clip-rule="evenodd" d="M18.1856 9.17444C18.021 8.98259 17.7391 8.94379 17.5288 9.08399L16.0288 10.084C15.8897 10.1767 15.8062 10.3328 15.8062 10.5C15.8062 10.6672 15.8897 10.8233 16.0288 10.9161L17.5288 11.9161C17.7422 12.0583 18.0285 12.0161 18.1917 11.8184C18.355 11.6207 18.3422 11.3315 18.1622 11.1489C17.8001 10.7818 17.7497 10.6091 17.7503 10.5189C17.7511 10.418 17.8147 10.2318 18.1752 9.83739C18.3458 9.65079 18.3502 9.36629 18.1856 9.17444Z" fill="#971C4E"/>
</svg>
