<svg width="12" height="12" viewBox="0 0 12 12" fill="none" xmlns="http://www.w3.org/2000/svg">
<path fill-rule="evenodd" clip-rule="evenodd" d="M0.272716 2.4545C0.122092 2.60514 0.122092 2.84934 0.272716 2.99997C0.423339 3.1506 0.667545 3.1506 0.818169 2.99997L1.09107 2.72707L2.45453 4.09054L1.36363 5.18147C1.213 5.3321 1.213 5.5763 1.36363 5.72694C1.51423 5.87757 1.75843 5.87757 1.90907 5.72694L2.4544 5.18157L7.0909 9.81817C7.65003 10.3773 8.46717 10.5214 9.15917 10.2502L9.54537 10.6364C9.74733 10.8384 10.0334 10.9049 10.2908 10.8361L11.1818 11.7272C11.3324 11.8778 11.5766 11.8778 11.7273 11.7272C11.8779 11.5765 11.8779 11.3323 11.7273 11.1817L10.8361 10.2905C10.9047 10.0332 10.8381 9.74734 10.6363 9.54547L10.2501 9.1593C10.5213 8.46724 10.3773 7.65004 9.81816 7.09084L5.18167 2.45424L5.72723 1.90867C5.87787 1.75804 5.87787 1.51384 5.72723 1.3632C5.57663 1.21258 5.3324 1.21258 5.1818 1.3632L4.09087 2.45414L2.72743 1.09066L2.99997 0.818105C3.1506 0.667478 3.1506 0.423265 2.99997 0.272638C2.84937 0.122011 2.60517 0.122011 2.45453 0.272638L0.272716 2.4545ZM3.61947 2.92557L2.25603 1.56207L1.56247 2.25564L2.92593 3.61914L3.61947 2.92557ZM4.71027 2.92567L2.9258 4.71017L4.39447 6.17887L6.17893 4.39434L4.71027 2.92567ZM4.9399 6.72434L5.7581 7.54254L6.37767 6.92297C6.5283 6.77234 6.7725 6.77234 6.92313 6.92297C7.07377 7.0736 7.07377 7.3178 6.92313 7.46844L6.30357 8.088L6.84887 8.63334L7.4685 8.0137C7.61913 7.86307 7.86333 7.86307 8.01397 8.0137C8.16457 8.16434 8.16457 8.40854 8.01397 8.55917L7.39433 9.1788L7.5623 9.34677C7.92833 9.7128 8.4633 9.80694 8.91623 9.62917L9.62917 8.91624C9.80693 8.46327 9.7128 7.9283 9.34677 7.56227L6.72437 4.9398L4.9399 6.72434ZM10.1741 10.0275C10.1713 10.0238 10.1682 10.0202 10.1649 10.0169L9.8902 9.74217C9.867 9.768 9.843 9.79334 9.81816 9.81817C9.7933 9.84304 9.76793 9.86707 9.74207 9.8903L10.0168 10.165C10.0202 10.1684 10.0237 10.1715 10.0274 10.1743C10.0443 10.1444 10.0654 10.1162 10.0909 10.0908C10.1163 10.0654 10.1443 10.0443 10.1741 10.0275Z" fill="#198A5D"/>
</svg>
