<svg width="11" height="11" viewBox="0 0 11 11" fill="none" xmlns="http://www.w3.org/2000/svg">
<path fill-rule="evenodd" clip-rule="evenodd" d="M0.328643 2.34292C0.189606 2.48197 0.189606 2.70738 0.328643 2.84643C0.46768 2.98547 0.693101 2.98547 0.832138 2.84643L1.08405 2.59452L2.34263 3.8531L1.33564 4.86012C1.19659 4.99917 1.19659 5.22458 1.33564 5.36363C1.47466 5.50267 1.70007 5.50267 1.83912 5.36363L2.3425 4.86021L6.62235 9.14015C7.13847 9.6563 7.89275 9.78926 8.53152 9.53895L8.88801 9.89544C9.07444 10.0819 9.3385 10.1433 9.5761 10.0798L10.3986 10.9023C10.5376 11.0414 10.763 11.0414 10.9021 10.9023C11.0411 10.7633 11.0411 10.5378 10.9021 10.3988L10.0795 9.57615C10.1428 9.33864 10.0813 9.07477 9.89503 8.88843L9.53857 8.53197C9.78891 7.89314 9.65598 7.1388 9.13983 6.62261L4.85998 2.34267L5.36358 1.83907C5.50263 1.70003 5.50263 1.47461 5.36358 1.33557C5.22457 1.19653 4.99912 1.19653 4.86011 1.33557L3.85309 2.34258L2.59454 1.08399L2.8461 0.832397C2.98515 0.693357 2.98515 0.467929 2.8461 0.328889C2.70709 0.189849 2.48167 0.189849 2.34263 0.328889L0.328643 2.34292ZM3.41795 2.77775L2.1594 1.51914L1.51918 2.15935L2.77777 3.41797L3.41795 2.77775ZM4.42484 2.77784L2.77764 4.42507L4.13334 5.7808L5.78054 4.13354L4.42484 2.77784ZM4.63681 6.2843L5.39207 7.03957L5.96398 6.46766C6.10303 6.32861 6.32844 6.32861 6.46749 6.46766C6.60653 6.6067 6.60653 6.83212 6.46749 6.97117L5.89558 7.54307L6.39894 8.04646L6.9709 7.47449C7.10995 7.33544 7.33537 7.33544 7.47441 7.47449C7.61343 7.61353 7.61343 7.83895 7.47441 7.978L6.90244 8.54997L7.05749 8.70501C7.39537 9.04289 7.88918 9.12978 8.30727 8.96569L8.96537 8.3076C9.12946 7.88947 9.04257 7.39566 8.70469 7.05778L6.28401 4.63704L4.63681 6.2843ZM9.46841 9.33335C9.46583 9.32994 9.46297 9.32667 9.45989 9.3236L9.20632 9.07C9.18491 9.09384 9.16275 9.11723 9.13983 9.14015C9.11687 9.16311 9.09346 9.18529 9.06958 9.20673L9.32315 9.4603C9.32629 9.46341 9.32958 9.46627 9.333 9.46889C9.34853 9.44129 9.36807 9.41529 9.39158 9.39178C9.41503 9.36837 9.4409 9.34886 9.46841 9.33335Z" fill="#611232"/>
</svg>
