<svg width="11" height="11" viewBox="0 0 11 11" fill="none" xmlns="http://www.w3.org/2000/svg">
<path fill-rule="evenodd" clip-rule="evenodd" d="M0.328605 2.34292C0.189568 2.48197 0.189568 2.70738 0.328605 2.84643C0.467642 2.98547 0.693063 2.98547 0.8321 2.84643L1.08401 2.59452L2.34259 3.8531L1.3356 4.86012C1.19656 4.99917 1.19656 5.22458 1.3356 5.36363C1.47462 5.50267 1.70004 5.50267 1.83908 5.36363L2.34247 4.86021L6.62231 9.14015C7.13844 9.6563 7.89271 9.78926 8.53148 9.53895L8.88797 9.89544C9.0744 10.0819 9.33847 10.1433 9.57607 10.0798L10.3986 10.9023C10.5376 11.0414 10.763 11.0414 10.902 10.9023C11.0411 10.7633 11.0411 10.5378 10.902 10.3988L10.0794 9.57615C10.1428 9.33864 10.0813 9.07477 9.89499 8.88843L9.53853 8.53197C9.78887 7.89314 9.65594 7.1388 9.13979 6.62261L4.85994 2.34267L5.36354 1.83907C5.50259 1.70003 5.50259 1.47461 5.36354 1.33557C5.22453 1.19653 4.99908 1.19653 4.86007 1.33557L3.85305 2.34258L2.5945 1.08399L2.84607 0.832397C2.98511 0.693357 2.98511 0.467929 2.84607 0.328889C2.70705 0.189849 2.48164 0.189849 2.34259 0.328889L0.328605 2.34292ZM3.41791 2.77775L2.15936 1.51914L1.51914 2.15935L2.77773 3.41797L3.41791 2.77775ZM4.42481 2.77784L2.77761 4.42507L4.1333 5.7808L5.7805 4.13354L4.42481 2.77784ZM4.63677 6.2843L5.39204 7.03957L5.96394 6.46766C6.10299 6.32861 6.3284 6.32861 6.46745 6.46766C6.6065 6.6067 6.6065 6.83212 6.46745 6.97117L5.89554 7.54307L6.3989 8.04646L6.97087 7.47449C7.10991 7.33544 7.33533 7.33544 7.47437 7.47449C7.61339 7.61353 7.61339 7.83895 7.47437 7.978L6.90241 8.54997L7.05745 8.70501C7.39533 9.04289 7.88914 9.12978 8.30724 8.96569L8.96533 8.3076C9.12942 7.88947 9.04253 7.39566 8.70465 7.05778L6.28397 4.63704L4.63677 6.2843ZM9.46837 9.33335C9.46579 9.32994 9.46293 9.32667 9.45985 9.3236L9.20628 9.07C9.18487 9.09384 9.16271 9.11723 9.13979 9.14015C9.11684 9.16311 9.09342 9.18529 9.06954 9.20673L9.32311 9.4603C9.32625 9.46341 9.32954 9.46627 9.33296 9.46889C9.3485 9.44129 9.36804 9.41529 9.39154 9.39178C9.41499 9.36837 9.44087 9.34886 9.46837 9.33335Z" fill="white"/>
</svg>
