<svg width="15" height="14" viewBox="0 0 15 14" fill="none" xmlns="http://www.w3.org/2000/svg">
<path d="M13 7.74984C13.4142 7.74984 13.75 7.41405 13.75 6.99984C13.75 6.58562 13.4142 6.24984 13 6.24984V7.74984ZM6.99996 6.24984C6.58575 6.24984 6.24996 6.58562 6.24996 6.99984C6.24996 7.41405 6.58575 7.74984 6.99996 7.74984V6.24984ZM12.197 4.46951C11.9041 4.17661 11.4292 4.17661 11.1363 4.46951C10.8434 4.7624 10.8434 5.23727 11.1363 5.53017L12.197 4.46951ZM12.9124 6.24559L12.382 6.77592L12.9124 6.24559ZM12.9124 7.75408L12.4322 7.17792L12.4061 7.1997L12.382 7.22375L12.9124 7.75408ZM11.1363 8.46951C10.8434 8.7624 10.8434 9.23727 11.1363 9.53017C11.4292 9.82306 11.9041 9.82306 12.197 9.53017L11.1363 8.46951ZM12.9124 6.2456L12.3821 6.77593V6.77593L12.9124 6.2456ZM13.3579 6.79382L14.0711 6.56206L14.0711 6.56206L13.3579 6.79382ZM12.9124 7.75408L13.3925 8.33024L13.4187 8.30846L13.4427 8.2844L12.9124 7.75408ZM13.3579 7.20585L14.0711 7.43761L14.0711 7.43761L13.3579 7.20585ZM3.22872 3.2286L2.69839 2.69827H2.69839L3.22872 3.2286ZM3.22872 10.7711L2.69839 11.3014L3.22872 10.7711ZM9.2913 3.02884C9.64992 3.23612 10.1087 3.11343 10.3159 2.75481C10.5232 2.39619 10.4005 1.93744 10.0419 1.73016L9.2913 3.02884ZM10.0419 12.2695C10.4005 12.0622 10.5232 11.6035 10.3159 11.2449C10.1087 10.8862 9.64992 10.7636 9.2913 10.9708L10.0419 12.2695ZM13 6.24984H6.99996V7.74984H13V6.24984ZM11.1363 5.53017L12.382 6.77592L13.4427 5.71526L12.197 4.46951L11.1363 5.53017ZM12.382 7.22375L11.1363 8.46951L12.197 9.53017L13.4427 8.28441L12.382 7.22375ZM12.382 6.77592L12.3821 6.77593L13.4427 5.71527L13.4427 5.71526L12.382 6.77592ZM12.3821 6.77593C12.5228 6.91668 12.5961 6.99076 12.6438 7.04701C12.6859 7.09657 12.6626 7.08114 12.6446 7.02559L14.0711 6.56206C14.0036 6.35429 13.8896 6.19675 13.7873 6.07625C13.6907 5.96244 13.566 5.83852 13.4427 5.71527L12.3821 6.77593ZM13.3925 8.33025L13.3925 8.33024L12.4323 7.17791L12.4322 7.17792L13.3925 8.33025ZM13.4427 8.2844C13.566 8.16115 13.6907 8.03723 13.7873 7.92342C13.8896 7.80292 14.0036 7.64538 14.0711 7.43761L12.6446 6.97408C12.6626 6.91853 12.6859 6.9031 12.6438 6.95266C12.5961 7.00891 12.5228 7.083 12.3821 7.22375L13.4427 8.2844ZM12.6446 7.02558C12.6391 7.00885 12.6391 6.99082 12.6446 6.97409L14.0711 7.43761C14.1636 7.15308 14.1636 6.84659 14.0711 6.56206L12.6446 7.02558ZM2.69839 2.69827C0.322703 5.07396 0.322704 8.92571 2.69839 11.3014L3.75905 10.2407C1.96915 8.45084 1.96915 5.54883 3.75905 3.75893L2.69839 2.69827ZM10.0419 1.73016C7.7157 0.385613 4.68949 0.707176 2.69839 2.69827L3.75905 3.75893C5.25789 2.26009 7.53826 2.01559 9.2913 3.02884L10.0419 1.73016ZM2.69839 11.3014C4.68949 13.2925 7.7157 13.6141 10.0419 12.2695L9.2913 10.9708C7.53826 11.9841 5.25789 11.7396 3.75905 10.2407L2.69839 11.3014Z" fill="#B38E5D"/>
</svg>
