<svg width="18" height="18" viewBox="0 0 18 18" fill="none" xmlns="http://www.w3.org/2000/svg">
<path d="M17.9375 16.3896L12.6059 11.0572C13.4651 9.8765 13.9273 8.4535 13.9259 6.99324C13.9259 3.17117 10.8163 0.0615234 6.99422 0.0615234C3.17215 0.0615234 0.0625 3.17117 0.0625 6.99324C0.0625 10.8153 3.17215 13.925 6.99422 13.925C8.45447 13.9264 9.87748 13.4642 11.0582 12.605L16.3906 17.9365L17.9375 16.3896ZM6.99422 11.7357C6.05613 11.7358 5.13908 11.4577 4.35905 10.9366C3.57902 10.4154 2.97104 9.6747 2.61201 8.80804C2.25298 7.94137 2.15902 6.9877 2.34201 6.06763C2.525 5.14755 2.97673 4.30241 3.64006 3.63908C4.30339 2.97575 5.14853 2.52403 6.0686 2.34103C6.98867 2.15804 7.94234 2.252 8.80901 2.61103C9.67568 2.97007 10.4164 3.57804 10.9375 4.35807C11.4587 5.1381 11.7368 6.05515 11.7367 6.99324C11.7352 8.25057 11.2351 9.45597 10.346 10.345C9.45695 11.2341 8.25154 11.7342 6.99422 11.7357Z" fill="#A57F2C"/>
</svg>
