<svg width="40" height="40" viewBox="0 0 40 40" fill="none" xmlns="http://www.w3.org/2000/svg">
<circle cx="20" cy="20" r="20" fill="url(#paint0_linear_26321_5719)"/>
<path fill-rule="evenodd" clip-rule="evenodd" d="M11.4091 14.432C11.1832 14.6579 11.1832 15.0242 11.4091 15.2502C11.635 15.4761 12.0013 15.4761 12.2273 15.2502L12.6366 14.8408L14.6818 16.886L13.0454 18.5224C12.8195 18.7484 12.8195 19.1147 13.0454 19.3406C13.2714 19.5666 13.6377 19.5666 13.8636 19.3406L14.6816 18.5226L16.159 20.0001H12.1872C11.8723 20.0001 11.5704 20.1265 11.3477 20.3515C11.1251 20.5765 11 20.8817 11 21.1999V22.9993C10.997 24.3967 11.4661 25.7532 12.3298 26.8445C13.1935 27.9357 14.4 28.6962 15.7496 29.0001C17.0993 28.6964 18.306 27.9359 19.1699 26.8447C19.7784 26.076 20.1911 25.1756 20.3808 24.222L21.6363 25.4776C22.4751 26.3163 23.7008 26.5323 24.7388 26.1256L25.3181 26.7048C25.621 27.0078 26.0501 27.1076 26.4362 27.0044L27.7728 28.341C27.9987 28.5669 28.365 28.5669 28.5909 28.341C28.8169 28.1151 28.8169 27.7487 28.5909 27.5228L27.2542 26.186C27.3571 25.8 27.2572 25.3712 26.9545 25.0684L26.3752 24.4892C26.4769 24.2297 26.5397 23.9584 26.5636 23.6844C26.5815 23.4778 26.5774 23.2697 26.5511 23.0639C26.4728 22.4506 26.1982 21.8575 25.7272 21.3865L18.7725 14.4316L19.5909 13.6133C19.8168 13.3873 19.8168 13.021 19.5909 12.7951C19.365 12.5691 18.9986 12.5691 18.7727 12.7951L17.1363 14.4314L15.0911 12.3862L15.5 11.9774C15.7259 11.7515 15.7259 11.3851 15.5 11.1592C15.274 10.9333 14.9077 10.9333 14.6818 11.1592L11.4091 14.432ZM21.2733 23.7003L23.95 21.0235L18.0654 15.1388L15.3887 17.8155L17.5732 20.0001H19.3128C19.6277 20.0001 19.9296 20.1265 20.1523 20.3515C20.3749 20.5765 20.5 20.8817 20.5 21.1999V22.9269L21.2733 23.7003ZM16.4292 15.1386L14.384 13.0933L13.3437 14.1337L15.3889 16.1789L16.4292 15.1386ZM25.8354 25.3635C25.8006 25.4023 25.7645 25.4403 25.7272 25.4776C25.6899 25.5148 25.6519 25.5509 25.6132 25.5857L26.0252 25.9977C26.0865 26.0591 26.186 26.0591 26.2474 25.9977C26.3087 25.9364 26.3087 25.8369 26.2474 25.7756L25.8354 25.3635ZM24.7682 21.8417L25.0201 22.0937C25.3229 22.3965 25.5016 22.7763 25.5564 23.17C25.5761 23.3118 25.5798 23.4554 25.5673 23.5978C25.5516 23.7771 25.5105 23.9547 25.4438 24.1245L24.3743 25.1941C23.6949 25.4607 22.8925 25.3195 22.3434 24.7704L22.0915 24.5185L24.7682 21.8417ZM16.5 22.5001C16.5 22.2239 16.2761 22.0001 16 22.0001C15.7238 22.0001 15.5 22.2239 15.5 22.5001V23.5001H14.5C14.2238 23.5001 14 23.7239 14 24.0001C14 24.2762 14.2238 24.5001 14.5 24.5001H15.5V25.5001C15.5 25.7762 15.7238 26.0001 16 26.0001C16.2761 26.0001 16.5 25.7762 16.5 25.5001V24.5001H17.5C17.7761 24.5001 18 24.2762 18 24.0001C18 23.7239 17.7761 23.5001 17.5 23.5001H16.5V22.5001Z" fill="white"/>
<defs>
<linearGradient id="paint0_linear_26321_5719" x1="-19.8694" y1="19.8694" x2="19.8694" y2="59.6083" gradientUnits="userSpaceOnUse">
<stop stop-color="#198A5D"/>
<stop offset="1" stop-color="#198A5D" stop-opacity="0.6"/>
</linearGradient>
</defs>
</svg>
