<svg width="16" height="16" viewBox="0 0 16 16" fill="none" xmlns="http://www.w3.org/2000/svg">
<path d="M15.9139 12.613C15.1711 11.0623 13.904 10.0497 12.0934 9.59855C11.8217 9.53079 11.5329 9.59789 11.3158 9.77553L9.81251 11.0038C9.51908 11.244 9.10396 11.2749 8.78159 11.0755C7.19146 10.0946 5.90462 8.80774 4.92374 7.21767C4.72505 6.89529 4.75531 6.48017 4.99545 6.18675L6.22374 4.68345C6.40137 4.46634 6.46847 4.17753 6.40072 3.90581C5.94874 2.09528 4.9369 0.828244 3.38632 0.0853368C3.13631 -0.0344008 2.84092 -0.0278206 2.59619 0.1031C1.81658 0.519556 1.06987 0.990598 0.363263 1.52087C0.0928633 1.7235 -0.0439787 2.05903 0.0126107 2.39325C0.519844 5.40243 2.14617 8.56758 4.78886 11.2105C7.43155 13.8533 10.5967 15.4796 13.6065 15.9874C13.9401 16.044 14.2756 15.9071 14.4789 15.6367C15.0092 14.9295 15.4802 14.1834 15.8967 13.4038C16.0269 13.1584 16.0336 12.8636 15.9139 12.613Z" fill="#198A5D"/>
</svg>
