<svg width="16" height="16" viewBox="0 0 16 16" fill="none" xmlns="http://www.w3.org/2000/svg">
<path d="M10.5937 3.09363C10.5937 2.60612 10.4563 2.12849 10.1973 1.7155C9.93822 1.30252 9.56802 0.970899 9.12914 0.758673C8.69025 0.546447 8.20043 0.462207 7.71586 0.515612C7.23129 0.569017 6.77158 0.757906 6.38944 1.06062C6.0073 1.36333 5.71821 1.76761 5.55532 2.2271C5.39243 2.68659 5.36233 3.18268 5.46848 3.65849C5.57462 4.1343 5.81271 4.57056 6.15545 4.91726C6.49818 5.26395 6.93169 5.50703 7.40625 5.61863V14.4999L8 15.4999L8.59375 14.4999V5.61863C9.16217 5.48336 9.66854 5.16075 10.0313 4.70272C10.3941 4.2447 10.5922 3.67792 10.5937 3.09363ZM8.75 2.90613C8.62021 2.90613 8.49333 2.86764 8.38541 2.79553C8.27749 2.72342 8.19337 2.62093 8.1437 2.50101C8.09403 2.3811 8.08104 2.24915 8.10636 2.12185C8.13168 1.99455 8.19418 1.87762 8.28596 1.78584C8.37774 1.69406 8.49467 1.63156 8.62197 1.60624C8.74927 1.58092 8.88122 1.59391 9.00114 1.64358C9.12105 1.69325 9.22354 1.77736 9.29565 1.88528C9.36776 1.9932 9.40625 2.12008 9.40625 2.24988C9.40625 2.42393 9.33711 2.59085 9.21404 2.71392C9.09097 2.83699 8.92405 2.90613 8.75 2.90613Z" fill="#A57F2C"/>
</svg>
