<svg width="4" height="12" viewBox="0 0 4 12" fill="none" xmlns="http://www.w3.org/2000/svg">
<path d="M3.93408 2.62979C3.93406 2.26416 3.831 1.90594 3.63672 1.5962C3.44243 1.28646 3.16479 1.03774 2.83562 0.878575C2.50646 0.719406 2.13909 0.656225 1.77567 0.696279C1.41224 0.736333 1.06745 0.878 0.780849 1.10503C0.494247 1.33207 0.27743 1.63528 0.155261 1.97989C0.0330928 2.32451 0.0105187 2.69658 0.0901274 3.05344C0.169736 3.4103 0.348305 3.73749 0.605356 3.99751C0.862408 4.25753 1.18754 4.43984 1.54346 4.52354V11.1845L1.98877 11.9345L2.43408 11.1845V4.52354C2.8604 4.42209 3.24017 4.18013 3.51227 3.83661C3.78436 3.4931 3.93294 3.06801 3.93408 2.62979ZM2.55127 2.48917C2.45392 2.48917 2.35877 2.4603 2.27783 2.40622C2.19689 2.35214 2.1338 2.27527 2.09655 2.18533C2.0593 2.0954 2.04955 1.99643 2.06854 1.90096C2.08753 1.80548 2.13441 1.71778 2.20324 1.64895C2.27207 1.58012 2.35977 1.53324 2.45525 1.51425C2.55072 1.49526 2.64969 1.505 2.73962 1.54226C2.82956 1.57951 2.90643 1.64259 2.96051 1.72353C3.01459 1.80447 3.04346 1.89963 3.04346 1.99698C3.04346 2.12751 2.9916 2.2527 2.8993 2.34501C2.807 2.43731 2.68181 2.48917 2.55127 2.48917Z" fill="white"/>
</svg>
