<svg width="16" height="16" viewBox="0 0 16 16" fill="none" xmlns="http://www.w3.org/2000/svg">
<path fill-rule="evenodd" clip-rule="evenodd" d="M8.00007 11.0322C7.16271 11.0322 6.40455 10.6927 5.85589 10.1441C5.30728 9.5953 4.96768 8.83714 4.96768 7.99993C4.96768 7.16256 5.30728 6.4044 5.85589 5.85574C6.40455 5.30713 7.16271 4.96768 8.00007 4.96768C8.83729 4.96768 9.59545 5.30713 10.1441 5.85574C10.6929 6.4044 11.0323 7.16256 11.0323 7.99993C11.0323 8.83714 10.6929 9.5953 10.1441 10.1441C9.59545 10.6927 8.83729 11.0322 8.00007 11.0322ZM8.24243 2.11198V0.242504C8.24243 0.108552 8.13388 0 8.00007 0C7.86612 0 7.75757 0.108552 7.75757 0.242504V2.11198C7.83807 2.10873 7.91887 2.10658 8.00007 2.10658C8.08128 2.10658 8.16208 2.10873 8.24243 2.11198ZM2.11198 7.75742H0.242504C0.108702 7.75742 0 7.86597 0 7.99993C0 8.13373 0.108702 8.24228 0.242504 8.24228H2.11198C2.10888 8.16193 2.10663 8.08113 2.10663 7.99993C2.10663 7.91872 2.10888 7.83792 2.11198 7.75742ZM7.75757 13.888V15.7575C7.75757 15.8914 7.86612 16 8.00007 16C8.13388 16 8.24243 15.8914 8.24243 15.7575V13.888C8.16208 13.8913 8.08128 13.8934 8.00007 13.8934C7.91887 13.8934 7.83807 13.8913 7.75757 13.888ZM13.888 8.24228H15.7575C15.8914 8.24228 16 8.13373 16 7.99993C16 7.86597 15.8914 7.75742 15.7575 7.75742H13.888C13.8913 7.83792 13.8934 7.91872 13.8934 7.99993C13.8934 8.08113 13.8913 8.16193 13.888 8.24228ZM11.7261 4.27402C10.7727 3.3204 9.4551 2.73064 8.00007 2.73064C6.5449 2.73064 5.22748 3.3204 4.27402 4.27402C3.32045 5.22733 2.73069 6.54475 2.73069 7.99993C2.73069 9.45495 3.32045 10.7725 4.27402 11.726C5.22748 12.6795 6.5449 13.2693 8.00007 13.2693C9.4551 13.2693 10.7727 12.6794 11.7261 11.726C12.6796 10.7725 13.2695 9.45495 13.2695 7.99993C13.2695 6.54475 12.6797 5.22733 11.7261 4.27402Z" fill="#A57F2C"/>
</svg>
