<svg width="101" height="81" viewBox="0 0 101 81" fill="none" xmlns="http://www.w3.org/2000/svg">
<g filter="url(#filter0_d_26504_14863)">
<rect x="20.5" width="60" height="60" rx="30" fill="#971C4E" shape-rendering="crispEdges"/>
<path fill-rule="evenodd" clip-rule="evenodd" d="M44.6795 23.4896C44.7179 23.0166 44.8411 22.5673 45.0341 22.1562H40V23.8106L42.6667 25.8311V43.5101H61.3333V25.8546L64.3333 23.8341V22.1562H52.2992C52.4923 22.5673 52.6155 23.0166 52.6538 23.4896H62.458L60 25.145V42.1768H44V25.1686L41.7841 23.4896H44.6795Z" fill="#F6F6F6"/>
<path fill-rule="evenodd" clip-rule="evenodd" d="M42.6667 24.6667L41 22.5H44.8333L47 26.8333H50L52.3333 22.5H63.3333L61.3333 25.1667V42.8333H58.6667V31.5H53.3333V42.8333H42.6667V24.6667ZM45.3333 31.5H50V36.1667H45.3333V31.5Z" fill="#F6F6F6"/>
<path d="M40 42.8332C40 43.2014 40.2985 43.4998 40.6667 43.4998H63.3333C63.7015 43.4998 64 43.2014 64 42.8332C64 42.465 63.7015 42.1665 63.3333 42.1665H40.6667C40.2985 42.1665 40 42.465 40 42.8332Z" fill="#F6F6F6"/>
<path fill-rule="evenodd" clip-rule="evenodd" d="M52.6667 23.5C52.6667 25.7091 50.8759 27.5 48.6667 27.5C46.4576 27.5 44.6667 25.7091 44.6667 23.5C44.6667 21.2909 46.4576 19.5 48.6667 19.5C50.8759 19.5 52.6667 21.2909 52.6667 23.5ZM49.3334 21.5V22.8333H50.6667V24.1667H49.3334V25.5H48.0001V24.1667H46.6667V22.8333H48.0001V21.5H49.3334Z" fill="#F6F6F6"/>
<circle cx="41" cy="20.5" r="8" fill="white" fill-opacity="0.2"/>
</g>
<defs>
<filter id="filter0_d_26504_14863" x="0.5" y="-19.52" width="100" height="100" filterUnits="userSpaceOnUse" color-interpolation-filters="sRGB">
<feFlood flood-opacity="0" result="BackgroundImageFix"/>
<feColorMatrix in="SourceAlpha" type="matrix" values="0 0 0 0 0 0 0 0 0 0 0 0 0 0 0 0 0 0 127 0" result="hardAlpha"/>
<feOffset dy="0.48"/>
<feGaussianBlur stdDeviation="10"/>
<feComposite in2="hardAlpha" operator="out"/>
<feColorMatrix type="matrix" values="0 0 0 0 0.564706 0 0 0 0 0.596078 0 0 0 0 0.764706 0 0 0 0.25 0"/>
<feBlend mode="normal" in2="BackgroundImageFix" result="effect1_dropShadow_26504_14863"/>
<feBlend mode="normal" in="SourceGraphic" in2="effect1_dropShadow_26504_14863" result="shape"/>
</filter>
</defs>
</svg>
