<svg width="61" height="60" viewBox="0 0 61 60" fill="none" xmlns="http://www.w3.org/2000/svg">
<rect x="0.5" width="60" height="60" rx="30" fill="#DDDDDD"/>
<path fill-rule="evenodd" clip-rule="evenodd" d="M24.6795 23.4896C24.7179 23.0166 24.8411 22.5673 25.0341 22.1562H20V23.8106L22.6667 25.8311V43.5101H41.3333V25.8546L44.3333 23.8341V22.1562H32.2992C32.4923 22.5673 32.6155 23.0166 32.6538 23.4896H42.458L40 25.145V42.1768H24V25.1686L21.7841 23.4896H24.6795Z" fill="#611232"/>
<path fill-rule="evenodd" clip-rule="evenodd" d="M22.6667 24.6667L21 22.5H24.8333L27 26.8333H30L32.3333 22.5H43.3333L41.3333 25.1667V42.8333H38.6667V31.5H33.3333V42.8333H22.6667V24.6667ZM25.3333 31.5H30V36.1667H25.3333V31.5Z" fill="#611232"/>
<path d="M20 42.8332C20 43.2014 20.2985 43.4998 20.6667 43.4998H43.3333C43.7015 43.4998 44 43.2014 44 42.8332C44 42.465 43.7015 42.1665 43.3333 42.1665H20.6667C20.2985 42.1665 20 42.465 20 42.8332Z" fill="#611232"/>
<path fill-rule="evenodd" clip-rule="evenodd" d="M32.6667 23.5C32.6667 25.7091 30.8758 27.5 28.6667 27.5C26.4576 27.5 24.6667 25.7091 24.6667 23.5C24.6667 21.2909 26.4576 19.5 28.6667 19.5C30.8758 19.5 32.6667 21.2909 32.6667 23.5ZM29.3334 21.5V22.8333H30.6667V24.1667H29.3334V25.5H28V24.1667H26.6667V22.8333H28V21.5H29.3334Z" fill="#611232"/>
<circle cx="21" cy="20.5" r="8" fill="#971C4E" fill-opacity="0.2"/>
</svg>
