<svg width="16" height="16" viewBox="0 0 16 16" fill="none" xmlns="http://www.w3.org/2000/svg">
<path d="M8 0C3.57025 0 0 3.57025 0 8C0 12.4298 3.57025 16 8 16C12.4298 16 16 12.4298 16 8C16 3.57025 12.4298 0 8 0ZM13.8843 6.94215H11.5041C11.438 5.35537 11.1074 3.83471 10.5785 2.64463C12.2975 3.43802 13.5537 5.09091 13.8843 6.94215ZM8 13.5537C7.60331 13.4876 6.7438 11.8347 6.54545 9.05785H9.45455C9.2562 11.8347 8.39669 13.4215 8 13.5537ZM6.54545 6.94215C6.7438 4.16529 7.60331 2.5124 8 2.44628C8.39669 2.5124 9.2562 4.16529 9.45455 6.94215H6.54545ZM5.42149 2.64463C4.89256 3.83471 4.6281 5.42149 4.49587 6.94215H2.1157C2.44628 5.09091 3.70248 3.50413 5.42149 2.64463ZM2.1157 9.05785H4.49587C4.56198 10.6446 4.89256 12.1653 5.42149 13.3554C3.70248 12.4959 2.44628 10.9091 2.1157 9.05785ZM10.5785 13.3554C11.1074 12.1653 11.3719 10.5785 11.5041 9.05785H13.8843C13.5537 10.9091 12.2975 12.562 10.5785 13.3554Z" fill="#198A5D"/>
</svg>
