<svg width="15" height="15" viewBox="0 0 15 15" fill="none" xmlns="http://www.w3.org/2000/svg">
<path fill-rule="evenodd" clip-rule="evenodd" d="M7.61538 3.61538C5.40625 3.61538 3.61538 5.40625 3.61538 7.61538C3.61538 9.82452 5.40625 11.6154 7.61538 11.6154C9.82452 11.6154 11.6154 9.82452 11.6154 7.61538C11.6154 5.40625 9.82452 3.61538 7.61538 3.61538ZM3 7.61538C3 5.06637 5.06637 3 7.61538 3C10.1644 3 12.2308 5.06637 12.2308 7.61538C12.2308 10.1644 10.1644 12.2308 7.61538 12.2308C5.06637 12.2308 3 10.1644 3 7.61538Z" fill="#971C4E"/>
<path d="M7 8.53872C7 8.19885 6.72449 7.92334 6.38461 7.92334C6.04473 7.92334 5.76923 8.19885 5.76923 8.53872C5.76923 8.8786 6.04473 9.15411 6.38461 9.15411C6.72449 9.15411 7 8.8786 7 8.53872Z" fill="#971C4E"/>
<path d="M7.92309 6.0773C7.92309 5.73742 7.64758 5.46191 7.30771 5.46191C6.96783 5.46191 6.69232 5.73742 6.69232 6.0773C6.69232 6.41718 6.96783 6.69268 7.30771 6.69268C7.64758 6.69268 7.92309 6.41718 7.92309 6.0773Z" fill="#971C4E"/>
<path d="M9.76922 8.23111C9.76922 7.89123 9.49371 7.61572 9.15384 7.61572C8.81396 7.61572 8.53845 7.89123 8.53845 8.23111C8.53845 8.57098 8.81396 8.84649 9.15384 8.84649C9.49371 8.84649 9.76922 8.57098 9.76922 8.23111Z" fill="#971C4E"/>
<path fill-rule="evenodd" clip-rule="evenodd" d="M6.69232 1.76961C6.69232 1.59967 6.83008 1.46191 7.00001 1.46191H8.23078C8.40072 1.46191 8.53848 1.59967 8.53848 1.76961C8.53848 1.93954 8.40072 2.0773 8.23078 2.0773H7.92309V3.92345C7.92309 4.09339 7.78534 4.23114 7.6154 4.23114C7.44546 4.23114 7.30771 4.09339 7.30771 3.92345V2.0773H7.00001C6.83008 2.0773 6.69232 1.93954 6.69232 1.76961Z" fill="#971C4E"/>
<path fill-rule="evenodd" clip-rule="evenodd" d="M7.6154 11C7.78534 11 7.92309 11.1378 7.92309 11.3077V13.1538H8.23078C8.40072 13.1538 8.53848 13.2916 8.53848 13.4615C8.53848 13.6315 8.40072 13.7692 8.23078 13.7692H7.00001C6.83008 13.7692 6.69232 13.6315 6.69232 13.4615C6.69232 13.2916 6.83008 13.1538 7.00001 13.1538H7.30771V11.3077C7.30771 11.1378 7.44546 11 7.6154 11Z" fill="#971C4E"/>
<path fill-rule="evenodd" clip-rule="evenodd" d="M4.13422 12.4019C4.01406 12.522 3.81923 12.522 3.69908 12.4019L2.8288 11.5316C2.70864 11.4114 2.70864 11.2166 2.8288 11.0964C2.94896 10.9763 3.14378 10.9763 3.26394 11.0964L3.48151 11.314L4.78695 10.0086C4.90711 9.88841 5.10191 9.88841 5.22209 10.0086C5.34225 10.1287 5.34225 10.3235 5.22209 10.4437L3.91665 11.7491L4.13422 11.9667C4.2544 12.0869 4.2544 12.2817 4.13422 12.4019Z" fill="#971C4E"/>
<path fill-rule="evenodd" clip-rule="evenodd" d="M10.0087 5.22217C9.88851 5.10202 9.88851 4.90719 10.0087 4.78703L11.3141 3.48162L11.0965 3.26403C10.9764 3.14387 10.9764 2.94905 11.0965 2.82889C11.2167 2.70873 11.4115 2.70873 11.5317 2.82889L12.402 3.69919C12.5221 3.81934 12.5221 4.01414 12.402 4.13433C12.2818 4.25448 12.087 4.25448 11.9668 4.13433L11.7492 3.91676L10.4438 5.22217C10.3236 5.34233 10.1288 5.34233 10.0087 5.22217Z" fill="#971C4E"/>
<path fill-rule="evenodd" clip-rule="evenodd" d="M2.82881 4.13433C2.70865 4.01415 2.70865 3.81935 2.82881 3.69916L3.69911 2.82889C3.81926 2.70873 4.01409 2.70873 4.13424 2.82889C4.2544 2.94905 4.2544 3.14387 4.13424 3.26403L3.91667 3.48159L5.22209 4.78704C5.34224 4.90719 5.34224 5.10202 5.22209 5.22218C5.10194 5.34233 4.90711 5.34233 4.78695 5.22218L3.48154 3.91673L3.26395 4.13433C3.14379 4.25449 2.94897 4.25449 2.82881 4.13433Z" fill="#971C4E"/>
<path fill-rule="evenodd" clip-rule="evenodd" d="M10.0087 10.0091C10.1288 9.88891 10.3237 9.88891 10.4438 10.0091L11.7492 11.3145L11.9668 11.0969C12.087 10.9768 12.2818 10.9768 12.4019 11.0969C12.5221 11.2171 12.5221 11.4119 12.4019 11.5321L11.5317 12.4024C11.4115 12.5225 11.2167 12.5225 11.0965 12.4024C10.9764 12.2822 10.9764 12.0874 11.0965 11.9672L11.3141 11.7496L10.0087 10.4442C9.8885 10.324 9.8885 10.1292 10.0087 10.0091Z" fill="#971C4E"/>
<path fill-rule="evenodd" clip-rule="evenodd" d="M1.76924 8.53854C1.59931 8.53854 1.46155 8.40078 1.46155 8.23084V7.00008C1.46155 6.83017 1.59931 6.69238 1.76924 6.69238C1.93917 6.69238 2.07693 6.83017 2.07693 7.00008V7.30777H3.92309C4.09302 7.30777 4.23078 7.44555 4.23078 7.61546C4.23078 7.7854 4.09302 7.92315 3.92309 7.92315H2.07693V8.23084C2.07693 8.40078 1.93917 8.53854 1.76924 8.53854Z" fill="#971C4E"/>
<path fill-rule="evenodd" clip-rule="evenodd" d="M11 7.61546C11 7.44555 11.1378 7.30777 11.3077 7.30777H13.1538V7.00008C13.1538 6.83017 13.2916 6.69238 13.4615 6.69238C13.6315 6.69238 13.7692 6.83017 13.7692 7.00008V8.23084C13.7692 8.40078 13.6315 8.53854 13.4615 8.53854C13.2916 8.53854 13.1538 8.40078 13.1538 8.23084V7.92315H11.3077C11.1378 7.92315 11 7.7854 11 7.61546Z" fill="#971C4E"/>
</svg>
