<svg width="15" height="15" viewBox="0 0 15 15" fill="none" xmlns="http://www.w3.org/2000/svg">
<path fill-rule="evenodd" clip-rule="evenodd" d="M7.61538 3.61538C5.40625 3.61538 3.61538 5.40625 3.61538 7.61538C3.61538 9.82452 5.40625 11.6154 7.61538 11.6154C9.82452 11.6154 11.6154 9.82452 11.6154 7.61538C11.6154 5.40625 9.82452 3.61538 7.61538 3.61538ZM3 7.61538C3 5.06637 5.06637 3 7.61538 3C10.1644 3 12.2308 5.06637 12.2308 7.61538C12.2308 10.1644 10.1644 12.2308 7.61538 12.2308C5.06637 12.2308 3 10.1644 3 7.61538Z" fill="#971C4E"/>
<path d="M6.99993 8.53872C6.99993 8.19885 6.72443 7.92334 6.38455 7.92334C6.04467 7.92334 5.76917 8.19885 5.76917 8.53872C5.76917 8.8786 6.04467 9.15411 6.38455 9.15411C6.72443 9.15411 6.99993 8.8786 6.99993 8.53872Z" fill="#971C4E"/>
<path d="M7.92303 6.0773C7.92303 5.73742 7.64752 5.46191 7.30765 5.46191C6.96777 5.46191 6.69226 5.73742 6.69226 6.0773C6.69226 6.41718 6.96777 6.69268 7.30765 6.69268C7.64752 6.69268 7.92303 6.41718 7.92303 6.0773Z" fill="#971C4E"/>
<path d="M9.76922 8.23111C9.76922 7.89123 9.49371 7.61572 9.15384 7.61572C8.81396 7.61572 8.53845 7.89123 8.53845 8.23111C8.53845 8.57098 8.81396 8.84649 9.15384 8.84649C9.49371 8.84649 9.76922 8.57098 9.76922 8.23111Z" fill="#971C4E"/>
<path fill-rule="evenodd" clip-rule="evenodd" d="M6.69226 1.76961C6.69226 1.59967 6.83001 1.46191 6.99995 1.46191H8.23072C8.40066 1.46191 8.53841 1.59967 8.53841 1.76961C8.53841 1.93954 8.40066 2.0773 8.23072 2.0773H7.92303V3.92345C7.92303 4.09339 7.78528 4.23114 7.61534 4.23114C7.4454 4.23114 7.30765 4.09339 7.30765 3.92345V2.0773H6.99995C6.83001 2.0773 6.69226 1.93954 6.69226 1.76961Z" fill="#971C4E"/>
<path fill-rule="evenodd" clip-rule="evenodd" d="M7.61534 11C7.78528 11 7.92303 11.1378 7.92303 11.3077V13.1538H8.23072C8.40066 13.1538 8.53841 13.2916 8.53841 13.4615C8.53841 13.6315 8.40066 13.7692 8.23072 13.7692H6.99995C6.83001 13.7692 6.69226 13.6315 6.69226 13.4615C6.69226 13.2916 6.83001 13.1538 6.99995 13.1538H7.30765V11.3077C7.30765 11.1378 7.4454 11 7.61534 11Z" fill="#971C4E"/>
<path fill-rule="evenodd" clip-rule="evenodd" d="M4.13419 12.4019C4.01403 12.522 3.8192 12.522 3.69905 12.4019L2.82877 11.5316C2.70861 11.4114 2.70861 11.2166 2.82877 11.0964C2.94893 10.9763 3.14375 10.9763 3.26391 11.0964L3.48148 11.314L4.78692 10.0086C4.90708 9.88841 5.10188 9.88841 5.22206 10.0086C5.34222 10.1287 5.34222 10.3235 5.22206 10.4437L3.91662 11.7491L4.13419 11.9667C4.25437 12.0869 4.25437 12.2817 4.13419 12.4019Z" fill="#971C4E"/>
<path fill-rule="evenodd" clip-rule="evenodd" d="M10.0086 5.22217C9.88842 5.10202 9.88842 4.90719 10.0086 4.78703L11.314 3.48162L11.0965 3.26403C10.9763 3.14387 10.9763 2.94905 11.0965 2.82889C11.2166 2.70873 11.4114 2.70873 11.5316 2.82889L12.4019 3.69919C12.522 3.81934 12.522 4.01414 12.4019 4.13433C12.2817 4.25448 12.0869 4.25448 11.9667 4.13433L11.7492 3.91676L10.4437 5.22217C10.3236 5.34233 10.1287 5.34233 10.0086 5.22217Z" fill="#971C4E"/>
<path fill-rule="evenodd" clip-rule="evenodd" d="M2.82877 4.13433C2.70861 4.01415 2.70861 3.81935 2.82877 3.69916L3.69906 2.82889C3.81921 2.70873 4.01404 2.70873 4.1342 2.82889C4.25435 2.94905 4.25435 3.14387 4.1342 3.26403L3.91663 3.48159L5.22204 4.78704C5.3422 4.90719 5.3422 5.10202 5.22204 5.22218C5.10189 5.34233 4.90706 5.34233 4.78691 5.22218L3.48149 3.91673L3.26391 4.13433C3.14375 4.25449 2.94893 4.25449 2.82877 4.13433Z" fill="#971C4E"/>
<path fill-rule="evenodd" clip-rule="evenodd" d="M10.0086 10.0091C10.1287 9.88891 10.3236 9.88891 10.4437 10.0091L11.7491 11.3145L11.9667 11.0969C12.0869 10.9768 12.2817 10.9768 12.4019 11.0969C12.522 11.2171 12.522 11.4119 12.4019 11.5321L11.5316 12.4024C11.4114 12.5225 11.2166 12.5225 11.0964 12.4024C10.9763 12.2822 10.9763 12.0874 11.0964 11.9672L11.314 11.7496L10.0086 10.4442C9.88841 10.324 9.88841 10.1292 10.0086 10.0091Z" fill="#971C4E"/>
<path fill-rule="evenodd" clip-rule="evenodd" d="M1.76912 8.53854C1.59919 8.53854 1.46143 8.40078 1.46143 8.23084V7.00008C1.46143 6.83017 1.59919 6.69238 1.76912 6.69238C1.93905 6.69238 2.07681 6.83017 2.07681 7.00008V7.30777H3.92296C4.0929 7.30777 4.23066 7.44555 4.23066 7.61546C4.23066 7.7854 4.0929 7.92315 3.92296 7.92315H2.07681V8.23084C2.07681 8.40078 1.93905 8.53854 1.76912 8.53854Z" fill="#971C4E"/>
<path fill-rule="evenodd" clip-rule="evenodd" d="M11 7.61546C11 7.44555 11.1378 7.30777 11.3077 7.30777H13.1538V7.00008C13.1538 6.83017 13.2916 6.69238 13.4615 6.69238C13.6315 6.69238 13.7692 6.83017 13.7692 7.00008V8.23084C13.7692 8.40078 13.6315 8.53854 13.4615 8.53854C13.2916 8.53854 13.1538 8.40078 13.1538 8.23084V7.92315H11.3077C11.1378 7.92315 11 7.7854 11 7.61546Z" fill="#971C4E"/>
</svg>
