<svg width="16" height="16" viewBox="0 0 16 16" fill="none" xmlns="http://www.w3.org/2000/svg">
<path d="M0.423274 15.4546C0.387778 15.6052 0.431931 15.7645 0.545343 15.8736C0.629321 15.9558 0.740137 16 0.855271 16C0.893365 16 0.93059 15.9957 0.966087 15.987L4.57201 15.0494C5.61609 15.5351 6.73031 15.781 7.89203 15.781C12.2424 15.781 15.7825 12.2417 15.7825 7.89048C15.7825 3.5401 12.2409 0 7.89048 0C3.5401 0 0 3.5401 0 7.89048C0 9.3934 0.420743 10.847 1.22156 12.1083L0.423274 15.4546ZM4.38403 4.3775L4.95541 3.83469C5.17272 3.62864 5.5164 3.6373 5.72245 3.8546L7.00982 5.21122C7.21586 5.42852 7.2072 5.77221 6.9899 5.97826L6.42716 6.51503C6.42716 6.51503 5.68262 6.96261 7.2427 8.46987L7.30676 8.53827C8.73178 10.1737 9.21746 9.45336 9.21746 9.45336L9.7802 8.91659C9.9975 8.71054 10.3412 8.7192 10.5472 8.9365L11.8129 10.2689C12.019 10.4862 12.0103 10.8299 11.793 11.0359L11.2216 11.5787C10.7853 11.9934 10.1732 12.1839 9.58367 12.0618C8.78372 11.8982 7.5864 11.3303 5.97952 9.73204C6.01068 9.76754 6.04185 9.80044 6.07302 9.83853L5.87822 9.63422C5.91112 9.66971 5.94489 9.70088 5.97779 9.73378C4.46447 8.04903 3.95887 6.82399 3.83679 6.01704C3.75022 5.41708 3.94768 4.7922 4.38403 4.3775Z" fill="#198A5D"/>
</svg>
